<svg width="220" height="59" viewBox="0 0 220 59" fill="none" xmlns="http://www.w3.org/2000/svg">
<g clip-path="url(#clip0)">
<path fill-rule="evenodd" clip-rule="evenodd" d="M32.1079 46.0647C38.3716 46.0298 47.2277 45.3212 47.2277 37.8974C47.2277 34.2921 44.8958 32.1156 40.2074 30.7603C43.9904 29.8657 47.236 27.2556 47.236 23.7082C47.236 16.5362 37.9044 15.7617 32.1163 15.7617H12.6555V46.0763H19.9032V21.9578H38.876V27.3486H26.4727V34.2804H37.6771V39.3806H26.4727V46.0647H32.1079ZM12.9229 8.27319C17.7047 5.28046 23.3265 3.68311 29.0775 3.68311H29.0858C36.7962 3.68516 44.19 6.55555 49.6413 11.6631C55.0925 16.7705 58.155 23.6969 58.155 30.919C58.155 36.3057 56.4497 41.5715 53.2545 46.0505C50.0594 50.5294 45.5181 54.0203 40.2051 56.0817C34.8918 58.1431 29.0453 58.6825 23.4047 57.6316C17.7643 56.5807 12.5832 53.9867 8.5166 50.1777C4.45006 46.3686 1.68069 41.5158 0.558729 36.2325C-0.563232 30.9491 0.0126 25.4729 2.2134 20.4963C4.41422 15.5196 8.14116 11.2659 12.9229 8.27319ZM69.9133 27.3407V6.49073H89.6056C93.6656 6.49073 100.198 7.00578 100.198 11.9627C100.198 14.3985 97.9159 16.118 95.2616 16.7415C98.569 17.6709 100.198 19.3826 100.198 21.7255C100.198 26.8372 93.9965 27.3253 89.6056 27.3407H77.1445L79.2117 24.1382C79.4734 23.7819 79.8235 23.4901 80.2316 23.2879C80.6398 23.0856 81.094 22.9786 81.556 22.9763H89.4982C91.0031 22.9995 92.1939 22.0005 92.1939 20.7806C92.1939 19.5607 91.0279 18.5771 89.4982 18.5771L77.1445 18.5616L79.2117 15.3628C79.4732 15.0063 79.8231 14.7145 80.2314 14.5121C80.6396 14.3098 81.094 14.2031 81.556 14.201H89.6056C91.0443 14.201 92.2144 13.5853 92.2144 12.5397C92.2144 11.4941 91.0527 10.8668 89.6056 10.8668H77.1445V18.5616V27.3407H69.9133ZM117.679 11.5251L107.917 27.364H99.4167L113.027 6.49073H122.33L135.928 27.3486H127.436L125.154 23.6309H112.552L114.644 20.432C114.907 20.0774 115.258 19.7869 115.665 19.5848C116.073 19.3827 116.527 19.2749 116.988 19.2703H122.446L117.679 11.5251ZM176.801 11.5251L176.791 11.5419L176.78 11.5251H176.801ZM176.791 11.5419L167.048 27.364H158.527L172.133 6.49073H181.436L195.031 27.3486H186.558L184.272 23.6309H171.674L173.742 20.432C174.003 20.0771 174.351 19.7862 174.758 19.584C175.165 19.3818 175.617 19.2742 176.077 19.2703H181.543L176.791 11.5419ZM149.1 22.9763C150.754 22.9763 152.073 22.2289 152.073 20.7109V6.49073H159.271V21.3382C159.271 25.8382 156.091 27.3486 151.928 27.3486H139.897C139.436 27.3433 138.984 27.2351 138.577 27.033C138.17 26.8309 137.82 26.5407 137.557 26.1867L135.465 22.9725L149.1 22.9763ZM208.193 22.9763C209.848 22.9763 211.174 22.2289 211.174 20.7109V6.49073H218.393V21.3382C218.393 25.8382 215.222 27.3486 211.054 27.3486H199.024C198.562 27.3458 198.109 27.2387 197.702 27.0364C197.295 26.8342 196.944 26.5427 196.684 26.1867L194.59 22.9725L208.193 22.9763ZM69.8721 34.2921H87.6997V39.3612H76.0489V44.3336H86.5833V49.1318H76.0489V55.1653H69.8721V34.2921ZM98.1018 34.2921H91.9002V55.1653H98.1018V34.2921ZM103.456 34.2921H109.219L118.39 45.325V34.2921H124.5V55.1653H119.088L109.579 43.7179V55.1653H103.456V34.2921ZM131.471 48.2178L128.035 52.0633C130.772 54.3598 134.526 55.5215 138.479 55.5215C143.887 55.5215 147.484 52.985 147.484 48.7251V48.667C147.484 44.7595 144.304 43.2067 139.177 42.1651C136.089 41.5067 135.324 41.0923 135.324 40.1358V40.0777C135.324 39.3302 136.056 38.7339 137.553 38.7339C139.529 38.7339 141.753 39.4504 143.792 40.794L146.88 36.7084C144.461 34.8884 141.501 33.9358 137.714 33.9358C132.364 33.9358 129.085 36.7433 129.085 40.6159V40.674C129.085 44.9687 132.744 46.2196 137.491 47.2342C140.513 47.8886 141.245 48.3689 141.245 49.2324V49.2905C141.245 50.1851 140.352 50.7235 138.698 50.7235C136.053 50.6937 133.499 49.8085 131.471 48.2178ZM151.75 34.2921H169.673V39.214H157.865V42.374H168.561V46.9361H157.865V50.2508H169.834V55.1691H151.75V34.2921ZM184.797 34.2921H174.258V55.1653H180.435V48.8451H183.139L187.629 55.1653H194.761L189.444 47.8886C192.214 46.785 194.028 44.6706 194.028 41.4794V41.4175C194.028 39.3612 193.359 37.7501 192.053 36.5574C190.56 35.1284 188.204 34.2921 184.797 34.2921ZM187.799 41.8359C187.799 43.3576 186.595 44.3142 184.491 44.3142H180.414V39.3031H184.458C186.525 39.3031 187.799 40.1358 187.799 41.7778V41.8359ZM196.002 34.2921H202.91L207.97 47.5013L213.018 34.2921H219.799L210.758 55.3162H205.043L196.002 34.2921Z" fill="#0069B4"/>
</g>
<defs>
<clipPath id="clip0">
<rect width="219.826" height="58.155" fill="white"/>
</clipPath>
</defs>
</svg>
