<svg width="430" height="244" viewBox="0 0 430 244" fill="none" xmlns="http://www.w3.org/2000/svg">
<path d="M32.8978 243.006C32.8978 243.006 -18.0421 181.644 6.8531 118.474C23.0803 77.2971 83.9513 54.7343 118.304 77.2971C132.934 86.9071 179.876 77.6212 204.939 37.8362C253.643 -39.4756 423.623 7.4764 392.677 126.177C377.701 183.619 438.254 185.708 407.401 243.127L32.8978 243.006Z" fill="#EBF3FA"/>
<path d="M70.6033 142.017C70.6033 142.017 65.4659 136.023 70.2868 132.216C70.2868 132.216 73.8082 130.085 76.6798 130.257C76.6798 130.257 72.6117 137.079 73.9278 137.758C75.244 138.436 77.9127 129.829 77.9127 129.829C77.9127 129.829 85.9264 129.052 88.5042 130.291C88.5042 130.291 81.6537 135.896 83.0971 136.229C84.5405 136.563 91.9392 131.062 91.9392 131.062C91.9392 131.062 99.397 132.331 98.9987 136.881C98.6004 141.43 96.0316 142.835 94.9018 142.715C93.7719 142.594 87.1653 140.072 87.0214 140.997C86.8775 141.923 90.8548 144.947 93.6401 145.088C93.6401 145.088 88.3815 150.888 84.8874 149.214C81.3932 147.54 81.0948 144.888 78.9169 143.893C76.7389 142.898 74.879 142.901 75.7787 143.916C76.6783 144.931 80.6208 145.917 81.8658 148.12C83.1107 150.324 84.2285 151.81 80.6132 151.266C76.9979 150.722 71.1213 148.076 70.8623 145.047C70.6033 142.017 70.6033 142.017 70.6033 142.017Z" fill="#C8DBF4"/>
<path d="M95.3335 137.005C95.3335 137.005 75.0774 136.225 70.6034 142.017C70.6034 142.017 69.6144 144.979 66.57 147.678L66.096 148.972C66.096 148.972 69.6068 145.27 70.8624 145.047C70.8609 145.046 68.898 137.87 95.3335 137.005Z" fill="#C8DBF4"/>
<path d="M66.57 147.678C66.57 147.678 62.2217 150.894 61.9203 156.638L62.7094 156.71C62.7094 156.71 64.0982 150.769 66.6079 148.446C69.1175 146.123 66.57 147.678 66.57 147.678Z" fill="#C8DBF4"/>
<path d="M52.6419 134.479C52.6419 134.479 60.8146 129.901 57.0009 123.692C57.0009 123.692 53.9505 119.878 50.6805 118.898C50.6805 118.898 52.4238 128.16 50.6805 128.378C48.9372 128.596 49.4825 117.917 49.4825 117.917C49.4825 117.917 40.8736 113.776 37.4961 114.103C37.4961 114.103 42.835 123.146 41.0917 122.928C39.3484 122.71 33.3552 113.558 33.3552 113.558C33.3552 113.558 24.5298 111.923 23.1121 117.153C21.696 122.383 23.9845 124.999 25.2916 125.326C26.5987 125.653 34.9895 125.544 34.7714 126.633C34.5533 127.722 28.8872 129.467 25.7278 128.485C25.7278 128.485 29.2144 137.093 33.7914 136.658C38.3685 136.222 39.7846 133.39 42.6169 133.171C45.4507 132.953 47.5196 133.717 46.1035 134.479C44.6873 135.242 39.8922 134.728 37.6036 136.675C35.3151 138.619 33.4628 139.819 37.7127 140.69C41.9626 141.562 49.59 141.017 51.1152 137.749C52.6419 134.479 52.6419 134.479 52.6419 134.479Z" fill="#C8DBF4"/>
<path d="M27.1439 118.789C27.1439 118.789 50.0262 126.198 52.6419 134.48C52.6419 134.48 52.5328 138.185 54.8214 142.435V144.069C54.8214 144.069 52.4238 138.512 51.1167 137.749C51.1152 137.749 56.2375 130.557 27.1439 118.789Z" fill="#C8DBF4"/>
<path d="M54.8199 142.433C54.8199 142.433 58.3488 147.792 56.3375 154.315L55.4303 154.071C55.4303 154.071 56.3117 146.886 54.4655 143.272C52.6192 139.66 54.8199 142.433 54.8199 142.433Z" fill="#C8DBF4"/>
<path d="M65.6431 128.167C65.6431 128.167 54.8698 122.135 59.8983 113.947C59.8983 113.947 63.9195 108.92 68.2285 107.627C68.2285 107.627 65.9308 119.836 68.2285 120.123C70.5261 120.411 69.8082 106.335 69.8082 106.335C69.8082 106.335 81.1554 100.876 85.6083 101.308C85.6083 101.308 78.57 113.229 80.8676 112.943C83.1653 112.655 91.0653 100.59 91.0653 100.59C91.0653 100.59 102.7 98.4346 104.566 105.33C106.434 112.225 103.417 115.672 101.693 116.104C99.9695 116.534 88.9101 116.391 89.1963 117.827C89.4841 119.263 96.9525 121.562 101.118 120.269C101.118 120.269 96.5208 131.616 90.4882 131.042C84.4557 130.468 82.5882 126.733 78.8532 126.445C75.1183 126.157 72.389 127.163 74.2565 128.169C76.124 129.175 82.4443 128.499 85.4598 131.063C88.4754 133.627 90.9184 135.207 85.316 136.357C79.7135 137.506 69.6597 136.787 67.6484 132.478C65.6431 128.167 65.6431 128.167 65.6431 128.167Z" fill="#D4E4F8"/>
<path d="M99.2531 107.484C99.2531 107.484 69.0902 117.252 65.643 128.167C65.643 128.167 65.7869 133.05 62.7699 138.653V140.808C62.7699 140.808 65.9293 133.482 67.6529 132.478C67.6544 132.476 60.9024 122.997 99.2531 107.484Z" fill="#D4E4F8"/>
<path d="M62.7699 138.653C62.7699 138.653 58.1186 145.717 60.7706 154.315L61.9671 153.994C61.9671 153.994 60.8054 144.523 63.2394 139.76C65.6733 134.997 62.7699 138.653 62.7699 138.653Z" fill="#D4E4F8"/>
<path d="M65.2796 172.963C76.9342 172.963 86.3807 163.515 86.3807 151.86H44.1784C44.1784 163.515 53.6264 172.963 65.2796 172.963Z" fill="#D4E4F8"/>
<path d="M86.673 174.036H43.8861C43.8861 172.599 45.0523 171.433 46.4897 171.433H84.0695C85.5068 171.433 86.673 172.598 86.673 174.036Z" fill="#D4E4F8"/>
<path d="M86.8624 151.86H43.4848V152.507H86.8624V151.86Z" fill="#9FC1F4"/>
<path d="M174.166 242.567L174.27 242.565C175.123 242.55 175.782 241.852 175.702 241.051L170.013 184.243L165.05 184.685L173.218 241.799C173.281 242.246 173.689 242.576 174.166 242.567Z" fill="#8CB4F4"/>
<path d="M119.396 242.567L119.291 242.565C118.438 242.55 117.78 241.852 117.86 241.051L123.549 184.243L128.512 184.685L120.344 241.799C120.28 242.246 119.871 242.576 119.396 242.567Z" fill="#8CB4F4"/>
<path d="M214.295 242.567L214.399 242.565C215.252 242.55 215.911 241.852 215.83 241.051L210.142 184.243L205.178 184.685L213.347 241.799C213.41 242.246 213.818 242.576 214.295 242.567Z" fill="#8CB4F4"/>
<path d="M121.089 175.981L110.993 126.12C109.696 119.369 115.291 113.196 122.553 113.362L142.026 113.808C148.744 113.961 154.584 118.457 156.451 124.911L171.223 175.981H121.089Z" fill="#8CB4F4"/>
<path d="M127.197 175.981L117.101 126.12C115.805 119.369 121.399 113.196 128.662 113.362L148.135 113.808C154.852 113.961 160.692 118.457 162.56 124.911L177.331 175.981H127.197Z" fill="#8CB4F4"/>
<path d="M123.903 185.075H200.944C202.492 185.075 203.758 183.808 203.758 182.261V178.795C203.758 177.247 202.492 175.981 200.944 175.981H121.089V182.261C121.089 183.808 122.355 185.075 123.903 185.075Z" fill="#8CB4F4"/>
<path d="M160.056 185.075H209.168C210.414 185.075 211.435 184.054 211.435 182.807V178.247C211.435 177 210.414 175.98 209.168 175.98H160.056C158.81 175.98 157.789 177 157.789 178.247V182.807C157.789 184.054 158.81 185.075 160.056 185.075Z" fill="#8CB4F4"/>
<path d="M98.1021 175.331V177.032C98.1021 177.627 97.9097 178.114 97.6735 178.114H35.5984C35.3636 178.114 35.1697 177.627 35.1697 177.032V175.331C35.1697 174.736 35.3621 174.25 35.5984 174.25H97.675C97.9082 174.25 98.1021 174.736 98.1021 175.331Z" fill="#9ABFE2"/>
<path d="M98.1021 175.331V177.032C98.1021 177.627 97.9249 178.114 97.7098 178.114H48.4268C48.2103 178.114 48.0346 177.627 48.0346 177.032V175.331C48.0346 174.736 48.2118 174.25 48.4268 174.25H97.7083C97.9249 174.25 98.1021 174.736 98.1021 175.331Z" fill="#BAD4F4"/>
<path d="M82.3898 178.115H38.3201V242.35H82.3898V178.115Z" fill="#C8DBF4"/>
<path d="M94.7397 178.115H50.67V242.35H94.7397V178.115Z" fill="#DFEBFD"/>
<path d="M92.3724 238.803H53.0387V179.93H92.3724V238.803ZM53.4643 238.377H91.9483V180.354H53.4643V238.377Z" fill="#B7D3F3"/>
<path d="M92.1603 199.406H53.2507V199.83H92.1603V199.406Z" fill="#B7D3F3"/>
<path d="M92.1603 219.26H53.2507V219.684H92.1603V219.26Z" fill="#B7D3F3"/>
<path d="M76.6935 183.727H69.4734C69.1236 183.727 68.8358 183.44 68.8358 183.089C68.8358 182.739 69.1221 182.451 69.4734 182.451H76.6935C77.0433 182.451 77.3311 182.738 77.3311 183.089C77.3296 183.439 77.0433 183.727 76.6935 183.727Z" fill="#B7D3F3"/>
<path d="M76.6935 203.142H69.4734C69.1236 203.142 68.8358 202.856 68.8358 202.504C68.8358 202.155 69.1221 201.867 69.4734 201.867H76.6935C77.0433 201.867 77.3311 202.153 77.3311 202.504C77.3296 202.856 77.0433 203.142 76.6935 203.142Z" fill="#B7D3F3"/>
<path d="M76.6935 223.383H69.4734C69.1236 223.383 68.8358 223.097 68.8358 222.745C68.8358 222.395 69.1221 222.108 69.4734 222.108H76.6935C77.0433 222.108 77.3311 222.394 77.3311 222.745C77.3296 223.097 77.0433 223.383 76.6935 223.383Z" fill="#B7D3F3"/>
<path d="M271.108 62.6208H243.175C241.892 62.6208 240.844 61.5712 240.844 60.2899V33.3273C240.844 32.0444 241.893 30.9963 243.175 30.9963H271.108C272.391 30.9963 273.439 32.0459 273.439 33.3273V60.2883C273.441 61.5712 272.391 62.6208 271.108 62.6208Z" fill="#C0D8FB"/>
<path d="M269.898 61.2501H244.385C243.214 61.2501 242.255 60.2913 242.255 59.1206V34.4965C242.255 33.3257 243.214 32.367 244.385 32.367H269.898C271.069 32.367 272.027 33.3257 272.027 34.4965V59.1221C272.027 60.2929 271.069 61.2501 269.898 61.2501Z" fill="#DFEBFD"/>
<path d="M257.141 35.9277C257.514 35.9277 257.816 35.6253 257.816 35.2522C257.816 34.8792 257.514 34.5767 257.141 34.5767C256.768 34.5767 256.465 34.8792 256.465 35.2522C256.465 35.6253 256.768 35.9277 257.141 35.9277Z" fill="#B7D3F3"/>
<path d="M261.915 36.2064C262.096 35.8808 262.507 35.7626 262.832 35.9444C263.158 36.1261 263.276 36.5366 263.094 36.8622C262.913 37.1878 262.502 37.306 262.177 37.1242C261.851 36.944 261.733 36.5336 261.915 36.2064Z" fill="#B7D3F3"/>
<path d="M266.583 39.9156C266.896 39.7142 267.314 39.8035 267.516 40.117C267.717 40.4306 267.628 40.8486 267.314 41.05C267.001 41.2515 266.583 41.1621 266.381 40.8486C266.18 40.5351 266.269 40.117 266.583 39.9156Z" fill="#B7D3F3"/>
<path d="M268.895 45.6559C269.268 45.6559 269.571 45.9588 269.571 46.3314C269.571 46.7039 269.268 47.0069 268.895 47.0069C268.523 47.0069 268.22 46.7039 268.22 46.3314C268.22 45.9573 268.521 45.6559 268.895 45.6559Z" fill="#B7D3F3"/>
<path d="M267.714 52.317C267.977 52.5805 267.977 53.0076 267.714 53.2712C267.45 53.5347 267.023 53.5347 266.76 53.2712C266.496 53.0076 266.496 52.5805 266.76 52.317C267.023 52.0534 267.45 52.0534 267.714 52.317Z" fill="#B7D3F3"/>
<path d="M263.475 56.5684C263.738 56.832 263.738 57.2591 263.475 57.5226C263.211 57.7861 262.784 57.7861 262.52 57.5226C262.257 57.2591 262.257 56.832 262.52 56.5684C262.782 56.3049 263.211 56.3049 263.475 56.5684Z" fill="#B7D3F3"/>
<path d="M256.467 58.7585C256.467 58.3859 256.77 58.083 257.142 58.083C257.515 58.083 257.818 58.3859 257.818 58.7585C257.818 59.1311 257.515 59.434 257.142 59.434C256.768 59.434 256.467 59.1326 256.467 58.7585Z" fill="#B7D3F3"/>
<path d="M252.347 36.2064C252.165 35.8808 251.755 35.7626 251.429 35.9444C251.104 36.1261 250.985 36.5366 251.167 36.8622C251.349 37.1879 251.759 37.306 252.085 37.1243C252.411 36.944 252.527 36.5336 252.347 36.2064Z" fill="#B7D3F3"/>
<path d="M247.679 39.9156C247.366 39.7142 246.948 39.8035 246.746 40.1171C246.545 40.4306 246.634 40.8486 246.948 41.05C247.261 41.2515 247.679 41.1621 247.881 40.8486C248.082 40.5351 247.993 40.1171 247.679 39.9156Z" fill="#B7D3F3"/>
<path d="M245.366 45.6559C244.994 45.6559 244.691 45.9588 244.691 46.3314C244.691 46.704 244.994 47.0069 245.366 47.0069C245.739 47.0069 246.042 46.704 246.042 46.3314C246.042 45.9573 245.739 45.6559 245.366 45.6559Z" fill="#B7D3F3"/>
<path d="M246.548 52.317C246.284 52.5806 246.284 53.0077 246.548 53.2712C246.811 53.5347 247.238 53.5347 247.502 53.2712C247.765 53.0077 247.765 52.5806 247.502 52.317C247.238 52.0535 246.811 52.0535 246.548 52.317Z" fill="#B7D3F3"/>
<path d="M251.264 57.721C251.637 57.721 251.94 57.4186 251.94 57.0455C251.94 56.6725 251.637 56.37 251.264 56.37C250.891 56.37 250.589 56.6725 250.589 57.0455C250.589 57.4186 250.891 57.721 251.264 57.721Z" fill="#B7D3F3"/>
<path d="M256.959 46.33C256.959 45.9574 257.262 45.6544 257.634 45.6544C258.007 45.6544 258.31 45.9574 258.31 46.33C258.31 46.7025 258.007 47.0055 257.634 47.0055C257.262 47.0055 256.959 46.7041 256.959 46.33Z" fill="#B7D3F3"/>
<path d="M257.727 37.8952H257.542V46.3315H257.727V37.8952Z" fill="#B7D3F3"/>
<path d="M261.855 42.583L257.382 46.094L257.724 46.5288L262.196 43.0179L261.855 42.583Z" fill="#B7D3F3"/>
<path d="M188.203 165.546C184.035 172.799 178.793 175.599 178.793 175.599H156.984C156.984 175.599 191.382 160.013 188.203 165.546Z" fill="#233862"/>
<path d="M215.1 237.612C214.864 239.901 218.048 240.492 221.739 240.716C225.43 240.94 224.306 241.684 229.357 242.654C234.408 243.625 236.452 242.262 236.826 241.582C237.159 240.979 234.816 240.005 232.32 238.906C232.005 238.768 231.691 238.627 231.376 238.486C228.567 237.216 227.011 234.667 224.836 232.296C222.776 230.052 220.873 222.913 220.873 222.913L214.011 221.372C214.011 221.372 215.874 227.798 216.515 230.539C216.892 232.152 216.291 233.944 215.759 235.307C215.473 236.048 215.184 236.807 215.1 237.612Z" fill="#FFB27D"/>
<path d="M221.739 240.716C225.43 240.94 224.306 241.684 229.357 242.654C234.408 243.625 236.452 242.262 236.826 241.582C237.159 240.979 234.816 240.005 232.32 238.906L232.28 238.948C232.28 238.948 228.709 240.119 224.614 238.957C221.275 238.012 218.06 235.977 215.759 235.306C215.473 236.048 215.184 236.807 215.102 237.612C214.866 239.901 218.048 240.492 221.739 240.716Z" fill="#0F2549"/>
<path d="M204.704 158.115C201.012 155.522 176.588 150.901 164.124 149.564L150.348 137.605C150.348 137.605 138.622 154.972 138.528 168.26C138.484 174.456 141.337 175.071 141.339 175.072C141.339 175.072 185.501 175.4 187.438 175.599C190.607 175.927 194.787 183.821 195.83 191.01C196.875 198.2 215.291 227.442 215.291 227.442C215.291 227.442 219.132 228.672 220.907 228.569C222.817 228.457 223.702 227.818 223.702 227.818C223.702 227.818 213.032 163.963 204.704 158.115Z" fill="#233862"/>
<path d="M203.677 237.612C203.441 239.901 206.625 240.492 210.316 240.716C214.007 240.94 212.883 241.684 217.934 242.654C222.985 243.625 225.029 242.262 225.403 241.582C225.736 240.979 223.393 240.005 220.897 238.906C220.583 238.768 220.268 238.627 219.953 238.486C217.144 237.216 215.588 234.667 213.413 232.296C211.353 230.052 209.45 222.913 209.45 222.913L202.587 221.372C202.587 221.372 204.45 227.798 205.091 230.539C205.468 232.152 204.866 233.944 204.335 235.307C204.049 236.048 203.761 236.807 203.677 237.612Z" fill="#FFB27D"/>
<path d="M210.316 240.716C214.007 240.94 212.883 241.684 217.934 242.654C222.985 243.625 225.029 242.262 225.403 241.582C225.736 240.979 223.393 240.005 220.897 238.906L220.857 238.948C220.857 238.948 217.286 240.119 213.191 238.957C209.852 238.012 206.637 235.977 204.336 235.306C204.05 236.048 203.761 236.807 203.679 237.612C203.443 239.901 206.625 240.492 210.316 240.716Z" fill="#233862"/>
<path d="M193.181 158.115C189.974 155.863 180.326 154.117 169.677 152.82C166.732 152.461 164.315 150.321 163.596 147.443L138.825 137.605C138.825 137.605 127.099 154.972 127.005 168.26C126.961 174.456 129.814 175.071 129.816 175.072C129.816 175.072 173.978 175.4 175.915 175.599C179.084 175.927 183.264 183.821 184.308 191.01C185.353 198.2 203.768 227.442 203.768 227.442C203.768 227.442 207.609 228.672 209.384 228.569C211.294 228.457 212.179 227.818 212.179 227.818C212.179 227.818 201.507 163.963 193.181 158.115Z" fill="#2B478B"/>
<path d="M160.035 65.444C156.632 63.6568 151.452 63.4144 150.61 63.3023C140.541 61.9498 134.481 76.5807 134.123 81.0139C133.466 89.185 129.143 90.4315 123.059 95.5493C110.859 105.811 114.437 117.735 121.109 122.165C125.112 124.823 132.167 122.165 132.167 122.165C132.266 122.235 151.462 111.434 160.924 106.224C175.109 104.207 168.709 69.9983 160.035 65.444Z" fill="#233862"/>
<path d="M157.934 101.19C157.978 101.212 153.46 103.268 150.198 102.189C147.129 101.179 144.427 96.5595 144.469 96.5519C145.801 96.3596 147.155 95.0449 147.533 87.26L148.123 87.4084L158.039 89.9151C158.039 89.9151 157.646 93.0563 157.484 96.0264C157.349 98.5209 157.378 100.894 157.934 101.19Z" fill="#FFB27D"/>
<path d="M158.04 89.9151C158.04 89.9151 158.04 90.5618 157.669 93.4834C152.061 92.0688 149.589 90.2089 147.844 88.0809L158.04 89.9151Z" fill="#ED975D"/>
<path d="M160.156 90.3104C160.156 90.3104 147.044 92.4459 145.84 84.2596C144.636 76.0733 142.134 70.8359 150.454 69.1259C158.775 67.4175 160.865 70.3012 161.931 72.9351C162.997 75.5705 163.535 89.544 160.156 90.3104Z" fill="#FFB27D"/>
<path d="M160.168 68.7836C160.168 68.7836 154.214 78.1831 148.898 80.4095C143.582 82.636 140.971 81.5061 140.971 81.5061C140.971 81.5061 143.39 77.8393 144.02 72.9154C144.206 71.4644 145.151 70.2194 146.51 69.6757C150.323 68.1475 157.702 65.7378 160.168 68.7836Z" fill="#233862"/>
<path d="M154.938 69.6924C154.938 69.6924 158.428 71.4811 159.865 73.1592C161.253 74.7768 162.855 79.1691 162.74 81.1411C162.74 81.1411 164.462 71.6901 160.875 68.4413C157.072 64.9957 154.938 69.6924 154.938 69.6924Z" fill="#233862"/>
<path d="M168.424 121.188C168.026 147.842 168.315 142.271 165.399 144.8C164.697 145.409 162.722 145.773 160.123 145.944C151.95 146.486 137.584 145.14 137.037 143.63C135.152 138.404 136.483 136.781 134.911 128.779C134.747 127.928 134.544 127.007 134.307 126.004C132.995 120.51 131.72 118.639 136.371 109.812C140.591 101.815 145.551 95.3191 145.946 95.5523C157.077 102.16 157.459 96.6216 157.459 96.6216C157.459 96.6216 168.619 108.188 168.424 121.188Z" fill="white"/>
<path d="M157.457 96.6216C157.457 96.6216 168.85 98.5527 170.195 103.484C171.54 108.416 179.455 137.406 179.455 137.406C179.455 137.406 173.633 138.453 170.943 135.763C168.253 133.073 161.583 110.807 161.583 110.807L157.457 96.6216Z" fill="white"/>
<path d="M160.123 145.944C151.95 146.486 137.584 145.14 137.037 143.63C135.152 138.404 136.483 136.781 134.911 128.779L138.853 117.679C138.853 117.679 138.202 130.039 141.846 133.291C145.487 136.541 156.771 139.568 158.543 142.283C159.397 143.587 159.959 144.894 160.123 145.944Z" fill="#EBF3FF"/>
<path d="M150.76 140.746C150.76 140.746 158.823 138.951 160.123 139.666C161.424 140.381 164.603 142.987 165.001 143.895C165.399 144.802 162.105 143.207 161.033 142.919C160.339 142.733 158.513 143.368 157.608 143.669C153.804 144.938 151.471 144.285 151.471 144.285L150.76 140.746Z" fill="#FFB27D"/>
<path d="M145.945 95.5523C145.945 95.5523 134.534 96.2187 130.785 101.447C125.51 108.805 115.044 140.164 121.042 144.346C127.797 149.056 151.783 145.579 151.783 145.579C151.783 145.579 152.582 141.849 151.471 140.043C150.361 138.238 132.312 135.322 131.479 134.489C130.646 133.656 141.892 118.245 141.892 115.746C141.892 113.247 145.945 95.5523 145.945 95.5523Z" fill="white"/>
<path d="M160.513 141.911C160.513 141.911 162.202 144.09 162.757 144.351C163.311 144.611 163.668 144.546 163.668 144.546L162.529 142.497L160.513 141.911Z" fill="#FFB27D"/>
<path d="M160.123 139.666L165.034 142.051C165.034 142.051 164.825 142.394 164.221 142.367C163.617 142.339 162.09 141.78 162.09 141.78L160.123 139.666Z" fill="#FFB27D"/>
<path d="M178.217 145.32H155.405C155.405 144.316 156.22 143.501 157.224 143.501H178.217V145.32V145.32Z" fill="url(#paint0_linear)"/>
<path d="M178.151 120.476H213.421L204.96 145.32H169.463L178.151 120.476Z" fill="url(#paint1_linear)"/>
<path d="M213.94 120.475L205.48 145.32H169.983L178.672 120.475H213.94Z" fill="url(#paint2_linear)"/>
<path d="M194.925 132.669C194.705 133.618 193.758 134.388 192.809 134.388C191.859 134.388 191.267 133.618 191.487 132.669C191.706 131.719 192.653 130.95 193.602 130.95C194.552 130.95 195.144 131.719 194.925 132.669Z" fill="white"/>
<path d="M147.52 150.91H302.081C302.731 150.91 303.258 150.383 303.258 149.733V146.498C303.258 145.849 302.731 145.321 302.081 145.321H147.52C146.87 145.321 146.343 145.849 146.343 146.498V149.733C146.343 150.383 146.87 150.91 147.52 150.91Z" fill="#182D4F"/>
<path d="M305.865 242.983L305.931 242.976C306.723 242.877 307.284 242.171 307.184 241.397L293.41 148.166L288.368 148.31L304.574 242.046C304.677 242.645 305.247 243.059 305.865 242.983Z" fill="#182D4F"/>
<path d="M142.344 242.983L142.278 242.976C141.486 242.877 140.925 242.171 141.025 241.397L154.799 148.166L159.841 148.31L143.635 242.046C143.532 242.645 142.962 243.059 142.344 242.983Z" fill="#182D4F"/>
<path d="M174.229 242.983L174.163 242.976C173.371 242.877 172.81 242.171 172.91 241.397L186.684 148.166L191.726 148.31L175.52 242.046C175.417 242.645 174.847 243.059 174.229 242.983Z" fill="#182D4F"/>
<path d="M428.647 243.751H0.585803C0.264712 243.751 0.00117493 243.488 0.00117493 243.166V242.688C0.00117493 242.367 0.264712 242.103 0.585803 242.103H428.647C428.968 242.103 429.232 242.367 429.232 242.688V243.166C429.232 243.488 428.968 243.751 428.647 243.751Z" fill="#2E3552"/>
<path d="M255.487 242.907H282.819C284.134 241.303 283.649 235.384 283.45 233.45C283.41 233.061 283.381 232.834 283.381 232.834C283.381 232.834 274.048 225.369 272.765 231.085C272.726 231.263 272.679 231.439 272.627 231.612C271.013 236.958 263.767 239.388 259.584 240.065C256.863 240.508 255.859 241.921 255.487 242.907Z" fill="#233862"/>
<path d="M330.065 154.098C329.079 154.098 283.247 162.703 275.667 172.087C271.881 176.775 271.317 230.915 271.317 230.915C271.317 230.915 276.002 236.723 286.121 233.35C286.121 233.35 293.539 196.308 292.992 185.075C292.841 181.968 324.306 184.625 330.065 183.134C335.823 181.644 349.895 169.116 346.795 163.013C343.693 156.91 330.065 154.098 330.065 154.098Z" fill="#233862"/>
<path d="M275.862 140.841C275.862 140.841 266.617 140.966 264.432 141.903C262.246 142.841 257.81 144.991 258.998 145.321C260.185 145.652 265.848 145.185 267.072 145.373C268.296 145.561 269.804 145.321 270.554 145.321C271.303 145.321 274.799 145.321 274.799 145.321L275.862 140.841Z" fill="#FFB27D"/>
<path d="M265.054 118.656C265.054 118.656 261.902 116.404 258.842 115.966C257.095 115.716 255.399 115.405 254.374 115.043C251.549 114.048 245.898 108.967 246.327 108.372C247.697 106.462 254.295 110.504 255.446 110.07C256.597 109.635 253.233 107.243 254.402 106.401C255.014 105.962 256.444 108.164 257.612 108.385C259.193 108.685 260.429 110.918 260.906 111.034C261.833 111.262 265.892 114.28 265.892 114.28L265.054 118.656Z" fill="#FFB27D"/>
<path d="M325.5 92.3535C325.5 92.3535 318.463 94.5345 311.529 113.627C304.595 132.72 301.963 133.752 299.443 134.5C296.923 135.248 274.801 139.654 274.801 139.654V145.32H308.886C308.886 145.32 321.668 133.161 325.5 124.976C329.332 116.791 325.5 92.3535 325.5 92.3535Z" fill="url(#paint3_linear)"/>
<path d="M243.408 242.907H270.739C272.053 241.303 271.569 235.384 271.37 233.45C271.329 233.061 271.3 232.834 271.3 232.834C271.3 232.834 261.968 225.369 260.685 231.085C260.645 231.263 260.598 231.439 260.547 231.612C258.932 236.958 251.687 239.388 247.503 240.065C244.785 240.508 243.779 241.921 243.408 242.907Z" fill="#1B3051"/>
<path d="M316.559 154.098C315.572 154.098 269.742 162.703 262.161 172.087C258.375 176.775 257.812 230.915 257.812 230.915C257.812 230.915 262.498 236.723 272.615 233.35C272.615 233.35 280.034 196.308 279.487 185.075C279.335 181.968 310.801 184.625 316.559 183.134C322.318 181.644 336.39 169.116 333.289 163.013C330.187 156.91 316.559 154.098 316.559 154.098Z" fill="#2B478B"/>
<path d="M319.428 98.4043C322.725 98.1317 326.181 97.2532 329.17 96.2839C332.905 95.0722 335.914 93.3001 333.975 89.8878C332.188 86.742 329.294 79.7144 329.489 73.8923L322.54 79.4932L317.819 83.2963C317.819 83.2963 317.839 85.5394 318.355 89.4698C318.449 90.1862 318.56 90.9601 318.69 91.7856C318.795 92.4535 318.489 93.1199 317.915 93.4758C317.878 93.4986 317.844 93.5198 317.809 93.5425C315.46 95.0162 316.665 98.6315 319.428 98.4043Z" fill="#FFB27D"/>
<path d="M317.818 82.3694C317.818 82.3694 317.577 83.1843 317.992 86.1907C322.201 85.5046 326.134 82.1468 326.134 82.1468C323.991 81.5591 323.213 79.2433 321.616 79.4599L317.818 82.3694Z" fill="#ED975D"/>
<path d="M313.925 83.0555C313.925 83.0555 330.113 85.7454 331.634 75.6371C333.153 65.5303 336.267 59.0706 325.995 56.926C315.723 54.7813 313.13 58.336 311.803 61.5863C310.474 64.8366 309.753 82.0953 313.925 83.0555Z" fill="#FFB27D"/>
<path d="M309.421 57.1138C308.726 59.5477 310.586 62.5118 313.709 63.4887C318.345 64.9366 317.319 70.6238 319.407 70.5466C321.492 70.4694 322.334 67.2781 324.197 69.8272C325.786 72.0021 322.875 74.5799 323.075 75.7734C323.419 77.8211 326.627 82.0105 329.516 81.7999C332.406 81.5894 337.815 67.8537 336.733 63.6038C335.652 59.3539 331.325 54.8722 327.229 54.2543C323.134 53.6363 317.447 55.4038 316.134 55.4038C314.82 55.4038 309.797 55.7991 309.421 57.1138Z" fill="#2B478B"/>
<path d="M347.01 106.382C344.67 96.9639 338.203 87.0828 333.83 87.0904C326.378 87.104 315.667 89.0714 311.343 99.7401C308.158 107.598 303.909 152.797 308.711 156.011C319.687 163.36 345.13 178.361 349.65 163.063C353.792 149.046 351.07 122.725 347.01 106.382Z" fill="url(#paint4_linear)"/>
<path d="M328.912 97.0094C326.787 91.4796 319.931 89.5682 315.255 93.2062C312.726 95.1737 309.63 97.9757 305.889 101.959C291.984 116.767 289.157 116.675 286.546 116.369C283.935 116.063 261.871 111.38 261.871 111.38C261.871 111.38 260.741 112.213 260.076 113.561C259.188 115.36 259.635 116.587 259.635 116.587C258.77 116.028 267.456 122.015 271.779 124.402C277.489 127.554 286.092 130.51 289.518 131.633C290.489 131.951 291.537 131.936 292.499 131.589C297.585 129.756 314.663 123.075 328.567 111.486C332.229 108.429 330.883 102.136 328.912 97.0094Z" fill="url(#paint5_linear)"/>
<path d="M334.58 87.1812L332.892 83.3811C332.892 83.3811 317.792 84.6125 315.254 93.2062C315.255 93.2062 326.96 87.3645 334.58 87.1812Z" fill="white"/>
<path d="M371.242 242.567L371.346 242.565C372.199 242.55 372.858 241.852 372.777 241.051L367.089 184.243L362.125 184.685L370.293 241.799C370.357 242.246 370.764 242.576 371.242 242.567Z" fill="#8CB4F4"/>
<path d="M341.963 242.567L342.068 242.565C342.92 242.55 343.579 241.852 343.499 241.051L337.812 184.243L332.848 184.685L341.017 241.799C341.079 242.246 341.486 242.576 341.963 242.567Z" fill="#8CB4F4"/>
<path d="M286.999 242.567L286.895 242.565C286.042 242.55 285.383 241.852 285.463 241.051L291.152 184.243L296.115 184.685L287.947 241.799C287.885 242.246 287.476 242.576 286.999 242.567Z" fill="#73A2E5"/>
<path d="M369.635 176.196L375.033 128.75C375.74 121.914 373.453 115.218 363.585 114.7L346.227 113.642C335.938 113.218 331.295 121.78 329.992 128.372L319.687 180.526L369.635 176.196Z" fill="#8CB4F4"/>
<path d="M366.733 185.075H289.692C288.144 185.075 286.878 183.808 286.878 182.261V178.795C286.878 177.247 288.144 175.981 289.692 175.981H369.547V182.261C369.547 183.808 368.281 185.075 366.733 185.075Z" fill="#73A2E5"/>
<path d="M367.361 185.075H321.872C320.67 185.075 319.687 184.092 319.687 182.889V178.167C319.687 176.964 320.67 175.981 321.872 175.981H369.547V182.889C369.547 184.09 368.564 185.075 367.361 185.075Z" fill="#8CB4F4"/>
<defs>
<linearGradient id="paint0_linear" x1="166.811" y1="143.501" x2="166.811" y2="145.32" gradientUnits="userSpaceOnUse">
<stop stop-color="#FF90A8"/>
<stop offset="0.864583" stop-color="#5900FF"/>
</linearGradient>
<linearGradient id="paint1_linear" x1="191.442" y1="120.476" x2="191.442" y2="145.32" gradientUnits="userSpaceOnUse">
<stop stop-color="#FF90A8"/>
<stop offset="0.864583" stop-color="#5900FF"/>
</linearGradient>
<linearGradient id="paint2_linear" x1="169.983" y1="145.32" x2="213.94" y2="145.32" gradientUnits="userSpaceOnUse">
<stop stop-color="#5900FF"/>
<stop offset="1" stop-color="#FF90A8"/>
</linearGradient>
<linearGradient id="paint3_linear" x1="274.801" y1="145.32" x2="327.203" y2="145.32" gradientUnits="userSpaceOnUse">
<stop stop-color="#5900FF"/>
<stop offset="1" stop-color="#FF90A8"/>
</linearGradient>
<linearGradient id="paint4_linear" x1="329.132" y1="87.0904" x2="329.132" y2="169.686" gradientUnits="userSpaceOnUse">
<stop stop-color="#FF90A8"/>
<stop offset="0.864583" stop-color="#5900FF"/>
</linearGradient>
<linearGradient id="paint5_linear" x1="295.195" y1="91.3429" x2="295.195" y2="131.861" gradientUnits="userSpaceOnUse">
<stop stop-color="#FF90A8"/>
<stop offset="0.864583" stop-color="#5900FF"/>
</linearGradient>
</defs>
</svg>
