<svg width="220" height="63" viewBox="0 0 220 63" fill="none" xmlns="http://www.w3.org/2000/svg">
<path d="M11.6802 57.0695H11.7108L14.6022 45.5393H15.8999L12.4097 58.8352H11.023L7.94893 47.0843H7.89857L4.82043 58.8352H3.43779L0 45.5393H1.257L4.12148 57.0695H4.152L7.251 45.5393H8.6372L11.6802 57.0695Z" fill="#231F20"/>
<path d="M25.4459 54.3132C25.4657 50.8704 23.8669 49.0116 21.2409 49.0116C18.5097 49.0116 16.8468 51.3038 16.8468 54.0976C16.8468 56.9173 18.1745 59.094 21.2409 59.094C23.6771 59.094 24.8207 57.7144 25.3772 55.9019H24.1471C23.8119 57.3029 22.6704 58.0985 21.2409 58.0985C19.1151 58.0985 18.0132 56.3816 18.0183 54.3132H25.4459ZM18.0183 53.3991C18.2554 51.582 19.283 50.0091 21.2409 50.0091C23.231 50.0091 24.2702 51.5246 24.2702 53.3991H18.0183Z" fill="#231F20"/>
<path d="M39.6048 49.273H40.7077V58.835H39.6048V57.5084C39.0035 58.1722 38.2003 59.0945 36.5145 59.0945C33.9603 59.0945 33.1189 57.5694 33.1189 55.5682V49.273H34.2279V55.5555C34.2279 57.1914 34.9522 58.099 36.6803 58.099C38.5096 58.099 39.6048 56.5718 39.6048 54.4791V49.273Z" fill="#231F20"/>
<path d="M44.6745 53.6856C44.6745 53.0162 44.6999 52.4877 44.9161 51.8706C45.263 50.9026 46.2168 50.0093 47.572 50.0093C49.3469 50.0093 50.0519 50.871 50.0519 52.5955V58.8352H51.1563V52.5711C51.1563 51.7872 51.1431 51.0638 50.6802 50.3852C49.9954 49.3815 48.9246 49.0117 47.7541 49.0117C46.4269 49.0117 45.5535 49.6557 44.6745 50.6055V49.2732H43.5609V58.8352H44.6745V53.6856Z" fill="#231F20"/>
<path d="M61.4154 50.8052C60.7032 49.6388 59.3419 49.0121 57.9913 49.0121C55.0683 49.0121 53.735 51.3902 53.735 54.0762C53.735 56.8994 54.9544 59.0945 58.0442 59.0945C59.2616 59.0945 60.722 58.4047 61.3721 57.1533H61.4154V58.835H62.5132V45.5392H61.4154V50.8052ZM61.4154 54.0192C61.4154 56.3256 60.2647 58.099 58.1755 58.099C56.3045 58.099 54.9203 56.7479 54.9091 54.3473C54.8181 51.9539 55.8904 50.0096 58.1755 50.0096C60.1894 50.0096 61.4154 51.8562 61.4154 54.0192Z" fill="#231F20"/>
<path d="M73.6024 54.3132C73.6156 50.8704 72.0045 49.0116 69.3847 49.0116C66.6444 49.0116 64.9891 51.3038 64.9891 54.0976C64.9891 56.9173 66.3234 59.094 69.3847 59.094C71.8229 59.094 72.9726 57.7144 73.523 55.9019H72.2828C71.9491 57.3029 70.8284 58.0985 69.3847 58.0985C67.2599 58.0985 66.1494 56.3816 66.1743 54.3132H73.6024ZM66.1743 53.3991C66.387 51.582 67.4257 50.0091 69.3847 50.0091C71.3738 50.0091 72.4156 51.5246 72.4156 53.3991H66.1743Z" fill="#231F20"/>
<path d="M77.1031 58.8352H75.9901V49.2732H77.1031V51.0638H77.1347C77.7492 49.5235 78.6537 49.0117 80.2632 49.0117V50.2184C77.769 50.1517 77.1031 52.0125 77.1031 54.1435V58.8352Z" fill="#231F20"/>
<path d="M82.9174 55.8485C83.2704 57.4799 84.1256 58.099 85.7921 58.099C87.3985 58.099 88.1458 57.2454 88.1458 56.3256C88.1458 53.5486 82.0119 55.5127 82.0119 51.7402C82.0119 50.1516 83.2506 49.0121 85.38 49.0121C87.4453 49.0121 88.7908 49.8555 89.0823 52.0175H87.9484C87.7378 50.5468 86.751 50.0091 85.3581 50.0091C83.9582 50.0091 83.2002 50.675 83.2002 51.6527C83.2002 54.2547 89.3285 52.6355 89.3285 56.3114C89.3285 58.1346 87.688 59.0945 85.4253 59.0945C83.1763 59.0945 81.8873 57.6508 81.8003 55.8485H82.9174Z" fill="#231F20"/>
<path d="M95.06 58.8707C94.794 58.9343 94.3239 59.094 93.7766 59.094C92.6885 59.094 92.0806 58.6092 92.0806 57.1915V50.1968H90.73V49.273H92.0806V46.6131H93.189V49.273H94.9807V50.1968H93.189V56.7474C93.189 57.6854 93.2272 58.0985 94.151 58.0985C94.447 58.0985 94.7589 58.0451 95.06 57.9733V58.8707Z" fill="#231F20"/>
<path d="M101.405 53.2582C101.818 53.2175 102.501 53.1142 102.862 52.955C103.239 52.7724 103.271 52.2718 103.271 51.9539C103.271 50.823 102.608 50.0091 100.885 50.0091C99.3529 50.0091 98.3142 50.5071 98.1021 52.167H96.9768C97.1426 49.9109 98.8214 49.0116 100.916 49.0116C102.85 49.0116 104.378 49.771 104.378 51.9864V57.1914C104.378 58.0628 104.601 58.2709 105.544 57.9311V58.7964C105.371 58.8529 104.994 58.9892 104.677 58.9892C104.489 58.9892 104.343 58.9683 104.174 58.9342C103.433 58.8203 103.302 58.1722 103.29 57.5084C102.373 58.5359 101.116 59.0945 99.734 59.0945C98.0456 59.0945 96.5373 58.1982 96.5373 56.3414C96.5373 54.7344 97.6442 53.7531 99.8693 53.4728L101.405 53.2582ZM103.271 53.8096C102.328 54.2003 101.37 54.2725 100.417 54.3473C98.7293 54.4791 97.7063 55.0905 97.7063 56.3821C97.7063 57.5435 98.7293 58.099 99.7828 58.099C101.535 58.099 103.271 57.2454 103.271 55.3138V53.8096Z" fill="#231F20"/>
<path d="M108.572 58.8352H107.466V49.2732H108.572V50.6055C109.462 49.6557 110.329 49.0117 111.655 49.0117C112.815 49.0117 113.891 49.3815 114.574 50.3852C115.042 51.0638 115.048 51.7872 115.048 52.5711V58.8352H113.943V52.5955C113.943 50.871 113.242 50.0093 111.476 50.0093C110.099 50.0093 109.17 50.9026 108.811 51.8706C108.59 52.4871 108.572 53.0162 108.572 53.6856V58.8352Z" fill="#231F20"/>
<path d="M125.307 50.8052C124.605 49.6388 123.234 49.0121 121.894 49.0121C118.966 49.0121 117.619 51.3902 117.619 54.0762C117.619 56.8994 118.854 59.0945 121.933 59.0945C123.153 59.0945 124.626 58.4047 125.269 57.1533H125.307V58.835H126.407V45.5392H125.307V50.8052ZM125.307 54.0192C125.307 56.3256 124.16 58.099 122.069 58.099C120.198 58.099 118.822 56.7479 118.796 54.3473C118.706 51.9539 119.782 50.0096 122.069 50.0096C124.083 50.0096 125.307 51.8562 125.307 54.0192Z" fill="#231F20"/>
<path d="M134.627 61.4413C134.926 61.4998 135.235 61.5547 135.55 61.5547C136.803 61.5547 136.998 59.7361 137.426 58.9079L133.704 49.2732H134.94L138.008 57.48L141.082 49.2732H142.278L138.719 58.7172C137.803 61.1014 137.206 62.6067 135.684 62.6067C135.293 62.6067 134.926 62.5512 134.627 62.4765V61.4413Z" fill="#231F20"/>
<path d="M147.918 59.0945C150.602 59.0945 152.365 57.0877 152.365 54.0573C152.365 51.2442 150.92 49.0121 147.918 49.0121C144.972 49.0121 143.488 51.2625 143.488 54.0573C143.488 57.4015 145.493 59.0675 147.918 59.0945ZM151.181 54.0573C151.181 56.1028 150.255 58.099 147.918 58.099C145.803 58.099 144.669 56.4299 144.669 54.0573C144.669 51.9864 145.597 50.0096 147.918 50.0096C150.267 50.0096 151.155 51.8028 151.181 54.0573Z" fill="#231F20"/>
<path d="M161.054 49.273H162.167V58.835H161.054V57.5084C160.46 58.1722 159.65 59.0945 157.971 59.0945C155.418 59.0945 154.57 57.5694 154.57 55.5682V49.273H155.685V55.5555C155.685 57.1914 156.401 58.099 158.136 58.099C159.963 58.099 161.054 56.5718 161.054 54.4791V49.273Z" fill="#231F20"/>
<path d="M166.188 58.8352H165.079V49.2732H166.188V51.0638H166.228C166.829 49.5235 167.743 49.0117 169.353 49.0117V50.2184C166.856 50.1517 166.188 52.0125 166.188 54.1435V58.8352Z" fill="#231F20"/>
<path d="M184.769 57.3518L187.276 49.2732H188.409L185.302 58.8352H184.116L182.034 50.8054H181.998L179.875 58.8352H178.548L175.622 49.2732H176.734L179.21 57.4332L181.424 49.2732H182.655L184.769 57.3518Z" fill="#231F20"/>
<path d="M193.996 59.0945C196.68 59.0945 198.436 57.0877 198.436 54.0573C198.436 51.2442 196.995 49.0121 193.996 49.0121C191.04 49.0121 189.573 51.2625 189.573 54.0573C189.573 57.4015 191.559 59.0675 193.996 59.0945ZM197.255 54.0573C197.255 56.1028 196.33 58.099 193.996 58.099C191.877 58.099 190.749 56.4299 190.749 54.0573C190.749 51.9864 191.675 50.0096 193.996 50.0096C196.344 50.0096 197.229 51.8028 197.255 54.0573Z" fill="#231F20"/>
<path d="M201.813 54.1435C201.813 52.0125 202.479 50.1512 204.967 50.2178V49.0117C203.365 49.0117 202.459 49.5235 201.847 51.0633H201.813V49.2732H200.7V58.8352H201.813V54.1435Z" fill="#231F20"/>
<path d="M207.151 45.5393H208.262V58.8352H207.151V45.5393Z" fill="#231F20"/>
<path d="M218.647 50.8052C217.957 49.6388 216.58 49.0121 215.241 49.0121C212.315 49.0121 210.981 51.3902 210.981 54.0762C210.981 56.8994 212.21 59.0945 215.29 59.0945C216.508 59.0945 217.969 58.4047 218.617 57.1533H218.647V58.835H219.758V45.5392H218.647V50.8052ZM218.647 54.0192C218.647 56.3256 217.506 58.099 215.419 58.099C213.562 58.099 212.174 56.7479 212.154 54.3473C212.062 51.9539 213.135 50.0096 215.419 50.0096C217.431 50.0096 218.647 51.8562 218.647 54.0192Z" fill="#231F20"/>
<path d="M219.826 36.6262H0.067688V-0.00012207H219.826V36.6262Z" fill="#004A8F"/>
<path d="M219.826 36.6262H36.6935V-0.00012207H219.826V36.6262Z" fill="#004A8F"/>
<path d="M48.3403 26.9729V9.64508H54.0423V15.4961H59.3831V9.64508H65.0948V26.9729H59.3831V20.2525H54.0423V26.9729H48.3403Z" fill="white"/>
<path d="M76.3163 26.9729C77.6603 26.9729 78.7728 26.8645 79.687 26.6229C80.6021 26.3838 81.3504 26.071 81.9197 25.6981C82.4986 25.3176 83.0271 24.8018 83.5078 24.1613C83.9875 23.4985 84.4072 22.6637 84.7348 21.6422C85.0711 20.6259 85.2293 19.4787 85.2293 18.178C85.2293 16.2714 84.8666 14.6578 84.131 13.3143C83.3842 11.9963 82.3704 11.0471 81.0778 10.486C79.7867 9.9208 78.2474 9.64508 76.4598 9.64508H68.5383V26.9729H76.3163ZM74.1147 13.9543H75.5925C76.6546 13.9543 77.4324 14.0626 77.933 14.2865C78.3008 14.4441 78.5968 14.6858 78.8593 15.0434C79.103 15.3959 79.2958 15.8441 79.4377 16.4067C79.569 16.9617 79.6371 17.5513 79.6371 18.176C79.6371 19.1903 79.4952 20.0368 79.1991 20.7195C78.9097 21.4087 78.488 21.9007 77.9508 22.2059C77.4116 22.5111 76.6088 22.6581 75.5507 22.6581L74.1147 22.6708V13.9543Z" fill="white"/>
<path d="M87.8434 26.9729V9.64508H101.362V13.9207H93.4686V16.6967H99.7816V20.8568H93.4686V26.9729H87.8434Z" fill="white"/>
<path d="M120.452 16.2714H115.072C114.971 15.4091 114.657 14.7305 114.135 14.2406C113.611 13.7625 112.954 13.5269 112.141 13.5269C111.136 13.5269 110.311 13.9207 109.683 14.6934C109.046 15.4758 108.728 16.7404 108.728 18.4842C108.728 19.6959 108.871 20.6121 109.137 21.2322C109.404 21.8721 109.788 22.332 110.265 22.6428C110.751 22.947 111.347 23.091 112.08 23.091C112.954 23.091 113.651 22.8728 114.162 22.3676C114.687 21.891 114.993 21.1813 115.092 20.2346H120.576C120.452 21.3105 120.237 22.212 119.926 22.947C119.625 23.6831 119.092 24.4085 118.366 25.1426C117.637 25.8822 116.762 26.4535 115.752 26.8508C114.743 27.2501 113.581 27.4419 112.244 27.4419C110.924 27.4419 109.697 27.2501 108.584 26.8645C107.461 26.4672 106.516 25.9051 105.762 25.2016C104.991 24.4701 104.394 23.6495 103.964 22.7217C103.348 21.4199 103.055 19.9895 103.055 18.3916C103.055 17.0553 103.272 15.7896 103.712 14.6298C104.146 13.4756 104.751 12.4968 105.52 11.7033C106.294 10.9173 107.135 10.3277 108.077 9.93044C109.263 9.42377 110.572 9.18214 112.022 9.18214C113.284 9.18214 114.455 9.36425 115.558 9.73764C116.658 10.1105 117.563 10.6538 118.269 11.3802C118.983 12.0995 119.529 12.9313 119.911 13.8749C120.186 14.5337 120.363 15.3303 120.452 16.2714Z" fill="white"/>
<path d="M139.23 19.7199C140.356 19.7199 141.087 19.8542 141.454 20.1431C141.801 20.4244 141.985 20.8156 141.985 21.3355C141.985 21.861 141.798 22.2715 141.424 22.5604C141.071 22.8723 140.328 23.0025 139.23 23.0025H136.903V19.7199H139.23ZM140.145 26.9729C141.494 26.9729 142.441 26.9124 143.002 26.7872C143.547 26.6601 144.114 26.4611 144.69 26.192C145.252 25.8985 145.686 25.6218 145.971 25.3176C146.411 24.9091 146.739 24.4085 146.981 23.8093C147.22 23.208 147.34 22.5259 147.34 21.7943C147.34 20.7479 147.079 19.8877 146.556 19.1903C146.029 18.4817 145.326 18.0167 144.435 17.7644C145.943 16.8177 146.694 15.5897 146.694 14.0962C146.694 12.5564 146.029 11.3797 144.719 10.576C143.707 9.95895 142.126 9.64508 139.986 9.64508H131.386V26.9729H140.145ZM138.715 13.5478C139.52 13.5478 140.041 13.5809 140.298 13.6582C140.629 13.7518 140.908 13.9416 141.103 14.1898C141.304 14.4482 141.41 14.7473 141.41 15.0927C141.41 15.5338 141.236 15.8985 140.899 16.1788C140.542 16.4652 139.929 16.598 139.049 16.598H136.903V13.5478H138.715Z" fill="white"/>
<path d="M154.532 26.9729L155.187 24.6975H160.861L161.525 26.9729H167.193L160.98 9.64508H155.187L148.966 26.9729H154.532ZM159.86 21.1468H156.234L158.022 14.8435L159.86 21.1468Z" fill="white"/>
<path d="M169.588 26.9729V9.64508H174.897L180.889 18.9232V9.64508H186.35V26.9729H180.927L175.063 17.9267V26.9729H169.588Z" fill="white"/>
<path d="M190.149 26.9729V9.64508H195.671V15.3613L200.826 9.64508H207.519L201.171 16.1691L208.179 26.9729H201.354L197.186 20.0719L195.671 21.568V26.9729H190.149Z" fill="white"/>
<path d="M36.6935 36.6262H0.067688V-0.00012207H36.6935V36.6262Z" fill="#ED1C24"/>
<path d="M30.2834 30.2158H6.47681V6.40819H30.2834V30.2158Z" fill="white"/>
<path d="M20.2118 36.6262H16.5486V-0.00012207H20.2118V36.6262Z" fill="white"/>
<path d="M0.067688 16.4807H36.6935V20.1428H0.067688V16.4807Z" fill="white"/>
<path d="M23.8737 23.8074H12.8858V12.8185H23.8737V23.8074Z" fill="#004A8F"/>
</svg>
