<svg width="220" height="45" viewBox="0 0 220 45" fill="none" xmlns="http://www.w3.org/2000/svg">
<g clip-path="url(#clip0)">
<path d="M40.1983 43.3711H47.6052L53.4118 21.731H46.081L40.1983 43.3711Z" fill="#004A7F"/>
<path d="M78.173 43.3711H85.5799L91.3864 21.731H83.9795L78.173 43.3711Z" fill="#004A7F"/>
<path d="M116.217 43.3711H123.551L129.289 21.731H121.882L116.217 43.3711Z" fill="#004A7F"/>
<path d="M71.2741 29.1381H78.681C79.6972 24.2751 76.5762 21.8074 69.3144 21.8074C60.8913 21.8074 55.2299 25.9445 53.2702 32.9886C51.5972 39.5209 55.0122 43.4439 62.9235 43.4439C70.9111 43.4439 75.629 40.9762 77.5923 35.3837H70.1853C69.0966 37.8515 67.2095 39.0854 64.5966 39.0854C61.0364 39.0854 59.5848 36.9079 60.6735 32.7708C61.8348 28.4849 64.5966 26.0897 68.1531 26.0897C70.4756 26.0897 71.4918 27.1058 71.2741 29.1381Z" fill="#004A7F"/>
<path d="M109.321 29.1381H116.728C117.744 24.2751 114.547 21.8074 107.285 21.8074C98.935 21.8074 93.201 25.9445 91.3139 32.9886C89.572 39.5209 92.9833 43.4439 100.898 43.4439C108.813 43.4439 113.531 40.9762 115.563 35.3837H108.16C107.14 37.8515 105.181 39.0854 102.568 39.0854C99.0112 39.0854 97.5596 36.9079 98.7173 32.7708C99.8096 28.4849 102.568 26.0897 106.124 26.0897C108.45 26.0897 109.539 27.1058 109.321 29.1381Z" fill="#004A7F"/>
<path d="M11.6629 9.75508C21.5377 -0.0470466 33.5172 -2.59102 38.3112 4.0901C43.1053 10.7712 38.8919 24.275 29.0172 34.0771C19.1425 43.9519 7.16289 46.4922 2.2963 39.7385C-2.4215 32.9884 1.79185 19.5536 11.6629 9.75508Z" fill="#F06321"/>
<path d="M18.1989 4.52586C17.1101 5.32426 16.0214 6.26782 14.9327 7.28758C6.29186 15.8522 2.65913 27.614 6.94508 33.4968C11.3725 39.3759 21.9731 37.1984 30.8316 28.5576C35.6256 23.9124 38.8192 18.5377 40.1257 13.5296C40.4886 9.82794 39.9806 6.55814 38.3112 4.09037C34.5369 -1.1355 26.4042 -0.703639 18.1989 4.52586Z" fill="#AE282E"/>
<path d="M30.6866 5.61451V5.83226C30.6142 7.06614 29.8883 8.59035 28.5818 9.89681C26.6221 11.7839 24.0091 12.5097 22.9168 11.4247C21.6829 10.2634 22.4124 7.71937 24.3721 5.68709C26.4044 3.72739 29.0173 3.07416 30.106 4.23546C30.4689 4.59837 30.6866 5.03386 30.6866 5.61451ZM23.1382 38.9403C18.4893 42.4242 13.6989 44.1698 9.05011 43.444C11.0098 43.5166 12.6102 41.3355 13.9167 38.4322C15.2232 35.4564 15.949 32.6983 16.6022 30.0817C17.5457 25.9446 17.6183 23.0413 17.1103 22.3881C16.3119 21.3683 14.5699 21.5897 12.534 22.751C11.5179 23.3316 10.2114 22.9687 11.7392 21.0816C13.336 19.1945 19.5055 14.6908 21.6829 13.965C24.1543 13.3118 26.9124 14.2553 25.9689 16.9409C25.312 18.9006 16.7474 41.2629 23.1382 38.9403Z" fill="white"/>
<path d="M140.397 39.9561L142.066 33.7141H146.131V30.3753H143.01L144.462 25.0733H146.131V21.8035H140.611L134.877 43.4436H146.131V39.9561H140.397ZM146.131 33.7141H146.929C150.635 33.7141 152.377 34.3673 151.651 36.9077C151.07 39.1577 149.256 39.9561 146.131 39.9561V43.4436C149.183 43.4436 151.433 43.1533 153.683 41.6255C155.207 40.6093 156.3 39.0851 156.735 37.3432C157.53 34.3673 156.224 32.3314 152.812 31.8996C156.006 31.3189 158.042 29.6459 158.691 27.033C159.272 25.0733 158.764 23.6216 157.385 22.6781C156.224 21.8797 154.264 21.8035 151.651 21.8035H146.131V25.0733H148.965C152.449 25.0733 154.046 25.5087 153.538 27.6862C152.885 29.7911 150.998 30.3753 147.441 30.3753H146.131V33.7141Z" fill="#004A7F"/>
<path d="M166.461 28.2708V30.9527C165.88 31.2466 165.372 31.7547 165.155 32.4805H160.8C161.522 30.3756 163.485 28.9204 166.461 28.2708ZM166.461 40.9762C165.953 41.1213 165.372 41.1939 164.792 41.1939C162.832 41.1939 161.961 40.3919 162.397 38.9402C162.832 37.2709 164.139 36.6902 166.461 36.4725V33.9321C161.449 34.295 158.691 35.6015 157.82 38.8677C157.022 41.8435 158.913 43.8068 162.832 43.8068C164.139 43.8068 165.372 43.5891 166.461 43.1536V40.9762ZM170.675 36.4725L170.602 36.6902C170.021 38.9402 168.493 40.4681 166.461 40.9761V43.1536C167.55 42.7145 168.493 42.1375 169.364 41.3391L169.001 43.4439H173.36C173.578 42.4242 173.795 41.2629 174.086 40.1015L175.755 34.0047C175.9 33.4966 175.973 32.9886 175.973 32.4805V31.7547C175.828 29.2833 173.723 27.9768 169.803 27.9768C168.566 27.9768 167.477 28.122 166.461 28.2708V30.9526C167.114 30.5934 167.913 30.4482 168.932 30.4482C171.179 30.4482 172.054 31.4607 171.397 33.6418L171.328 33.8595H169.001C168.134 33.8595 167.259 33.9321 166.461 33.9321V36.4725L170.675 36.4725Z" fill="#004A7F"/>
<path d="M177.279 43.4439H181.71L183.815 35.6741C184.541 32.916 187.082 30.9526 189.767 30.9526C192.38 30.9526 193.327 32.4805 192.456 35.5289L190.348 43.4439H194.779L197.247 34.2224C198.263 30.303 196.303 27.9768 191.948 27.9768C189.114 27.9768 186.864 28.9929 184.904 31.0252L185.412 28.3397H180.985C180.549 30.7349 180.259 32.1902 180.11 32.7708L177.279 43.4439Z" fill="#004A7F"/>
<path d="M198.698 43.4439H203.057L205.234 35.3112L211.117 43.4439H217.141L210.46 34.8031L219.464 28.3397H213.875L205.524 34.3676L208.863 21.8074H204.508L198.698 43.4439Z" fill="#004A7F"/>
</g>
<defs>
<clipPath id="clip0">
<rect width="219.826" height="44.169" fill="white"/>
</clipPath>
</defs>
</svg>
