<svg width="220" height="68" viewBox="0 0 220 68" fill="none" xmlns="http://www.w3.org/2000/svg">
<path fill-rule="evenodd" clip-rule="evenodd" d="M194.334 22.8049C204.359 25.8082 213.34 32.158 202.715 39.7807C194.606 45.5728 177.902 49.3769 171.366 50.8786C146.238 56.6134 118.336 57.7862 99.0151 57.0425C82.3254 56.4132 68.4816 53.982 58.0988 50.6212C65.4211 52.3802 72.9437 53.6959 80.5949 54.5826C98.7005 56.6849 117.45 56.4561 135.627 54.3681C147.883 52.9666 166.632 50.0634 181.477 45.3725C194.32 41.3109 212.211 31.3715 194.334 22.8049Z" fill="#8DC63F"/>
<path fill-rule="evenodd" clip-rule="evenodd" d="M204.045 35.8479C211.853 38.8512 218.518 42.8127 215.8 47.3319C215.457 47.904 214.985 48.476 214.327 49.0624C208.006 54.8116 193.533 57.9579 183.636 59.8027C145.752 66.839 91.1636 64.0646 61.0735 52.5948C68.6389 55.0404 76.7192 56.7279 84.9711 57.9579C95.1394 59.4595 105.522 60.3748 115.934 60.8181C131.065 61.4474 146.596 61.2329 161.555 59.9172C169.907 59.1735 178.145 58.0151 185.939 56.1988C190.959 55.0404 196.679 53.5101 201.513 51.465C205.875 49.6059 211.224 46.7456 210.766 42.9271C210.609 41.6972 209.865 40.3671 208.364 38.937C207.305 37.9359 205.875 36.9062 204.045 35.8479Z" fill="#F5821F"/>
<path d="M2.0946 13.4517V12.6079C5.66996 12.6651 9.28821 12.6794 12.9351 12.6365C14.6226 12.6079 15.3663 12.5364 16.9967 13.1657C25.5632 16.5265 20.9581 28.9544 11.9626 28.5111L11.934 27.7388C20.6292 26.9379 18.8558 12.3219 9.96037 14.4957V38.522C10.0605 40.4098 11.319 41.0677 13.6358 40.5814V41.511C10.0748 41.3823 6.51374 41.368 2.95269 41.511V40.653C4.61165 41.0677 5.54124 40.4098 5.74146 38.708V14.8818C5.74146 13.6233 4.64025 13.4088 3.83938 13.4231L2.0946 13.4517Z" fill="#AC2C31"/>
<path d="M46.9724 14.9247H54.023V39.2942C54.023 40.0379 53.3222 40.6243 52.5356 40.7101L51.3486 40.8388V41.5539H62.2892V40.6958L60.0439 40.6243C59.2001 40.5814 58.5279 39.8949 58.5279 38.9367V14.7816H64.606C66.0791 15.2536 66.9085 16.3119 66.98 18.0996H67.7237L67.6379 12.2217C67.2518 12.4791 66.7941 12.6364 66.2507 12.7365H46.9152C46.1286 12.6793 45.5422 12.4219 44.9988 12.1216L43.9405 17.7849L44.6127 17.8707C44.9559 16.3405 45.6281 15.2107 46.9724 14.9247Z" fill="#AC2C31"/>
<path d="M68.7534 36.2627L77.9635 12.0504C78.2781 11.7501 78.5928 11.793 78.8931 12.0647L88.7182 38.0504C89.4332 39.7379 90.606 40.7104 92.508 40.5817V41.497H83.9987L83.9272 40.7247C83.8986 40.5102 84.9998 40.4101 84.7281 39.3661L81.7963 31.5432H73.0724L70.6841 37.6928C69.8689 39.6521 69.8832 41.1252 72.7006 40.7104V41.5542H64.2914L64.3057 40.6675L66.0362 40.6389C67.7952 40.0383 68.1385 37.8788 68.7534 36.2627ZM73.7017 29.8271H80.9668L77.5202 19.4014L73.7017 29.8271Z" fill="#AC2C31"/>
<path d="M96.6268 11.7213L116.42 34.0172L116.363 14.4386C116.363 13.2801 114.16 13.2372 112.787 13.2229V12.4507H121.94V13.2229C120.882 13.323 118.923 13.4089 118.908 14.3241L118.579 41.3109C118.579 41.9401 117.764 41.697 117.421 41.3109L98.772 20.4737L98.2714 20.4451L98.5146 38.9941C99.1438 40.7674 100.445 40.5386 102.133 40.5672V41.4968H92.2935L92.3507 40.5958C94.0239 40.7817 95.5542 40.4099 96.0118 39.0084L96.1977 12.4078C96.1977 11.9501 96.4838 11.564 96.6268 11.7213Z" fill="#AC2C31"/>
<path d="M166.117 12.6936H177.201V13.423H174.984C174.355 13.423 173.711 13.9521 173.711 14.8531L173.797 36.8487C173.811 37.8927 174.24 39.1512 175.628 39.1512H181.377C182.821 39.0368 183.722 38.1358 184.094 35.6187H184.823C184.68 37.6066 184.452 39.523 184.008 41.2678H166.904V40.4526C168.177 40.4812 168.72 40.0522 169.321 39.3085L169.349 14.9961C169.349 13.7805 168.606 13.3658 167.848 13.3658H166.132L166.117 12.6936Z" fill="#AC2C31"/>
<path d="M188.127 12.6936H198.381V13.423H196.679C196.065 13.423 195.421 13.9521 195.421 14.8531L195.492 32.1578V39.0225C195.578 39.8377 195.836 40.5098 196.865 40.5527H199.268V41.5109H188.156L188.17 40.71L189.858 40.6671C190.644 40.6528 191.159 39.9521 191.159 38.8652C191.159 30.8993 191.045 23.0621 191.045 14.9961C191.045 13.7805 190.301 13.3658 189.543 13.3658H188.127V12.6936Z" fill="#AC2C31"/>
<path d="M126.388 12.6936H137.086V13.423H135.384C134.769 13.423 134.111 13.9521 134.125 14.8531L134.197 32.1578V35.962C134.197 43.2986 132.795 47.0885 126.445 50.3206C124.372 51.3789 124.829 51.2073 126.174 49.9344C130.092 46.2161 129.878 41.9686 129.863 36.5626C129.849 29.3976 129.749 22.2898 129.749 14.9961C129.763 13.7805 129.005 13.3658 128.247 13.3658H126.402L126.388 12.6936Z" fill="#AC2C31"/>
<path fill-rule="evenodd" clip-rule="evenodd" d="M204.302 3.62646C205.046 3.62646 205.775 3.81238 206.504 4.19852C207.205 4.58466 207.763 5.14242 208.163 5.85748C208.564 6.57256 208.764 7.31623 208.764 8.0885C208.764 8.86078 208.564 9.60445 208.178 10.3052C207.777 11.0203 207.234 11.578 206.519 11.9642C205.818 12.3503 205.074 12.5505 204.302 12.5505C203.53 12.5505 202.786 12.3503 202.085 11.9642C201.37 11.578 200.827 11.0203 200.426 10.3052C200.026 9.60445 199.84 8.86078 199.84 8.0885C199.84 7.31623 200.026 6.57256 200.441 5.85748C200.841 5.14242 201.399 4.58466 202.114 4.19852C202.829 3.81238 203.558 3.62646 204.302 3.62646ZM204.302 4.35584C203.673 4.35584 203.058 4.52745 202.471 4.84208C201.871 5.17102 201.413 5.62866 201.07 6.21502C200.741 6.82998 200.584 7.44494 200.584 8.0885C200.584 8.73206 200.741 9.34702 201.07 9.94768C201.399 10.534 201.857 10.9917 202.457 11.3206C203.044 11.6495 203.659 11.8069 204.302 11.8069C204.946 11.8069 205.561 11.6495 206.161 11.3206C206.748 10.9917 207.205 10.534 207.534 9.94768C207.863 9.34702 208.02 8.73206 208.02 8.0885C208.02 7.44494 207.863 6.82998 207.52 6.21502C207.191 5.62866 206.719 5.17102 206.133 4.84208C205.532 4.52745 204.931 4.35584 204.302 4.35584ZM202.343 10.5483V5.75737H204.002C204.559 5.75737 204.96 5.80028 205.217 5.88609C205.475 5.97189 205.675 6.12921 205.832 6.35803C205.975 6.57255 206.047 6.80138 206.047 7.0588C206.047 7.40203 205.918 7.70236 205.675 7.97409C205.418 8.23152 205.089 8.37453 204.674 8.40313C204.846 8.47464 204.989 8.56045 205.089 8.66056C205.275 8.84647 205.518 9.16111 205.789 9.61875L206.376 10.5483H205.432L205.003 9.79037C204.674 9.20401 204.402 8.83218 204.188 8.67486C204.059 8.57475 203.844 8.51754 203.573 8.51754H203.115V10.5483H202.343ZM203.115 7.85968H204.059C204.502 7.85968 204.817 7.78817 204.989 7.65946C205.146 7.51644 205.232 7.34483 205.232 7.13031C205.232 6.9873 205.189 6.85858 205.103 6.74417C205.031 6.62976 204.917 6.55825 204.774 6.48674C204.631 6.44384 204.374 6.41524 204.002 6.41524H203.115V7.85968Z" fill="#231F20"/>
<path d="M23.5468 36.2627L32.7569 12.0504C33.0715 11.7501 33.3718 11.793 33.6864 12.0647L43.4972 38.0504C44.2123 39.7379 45.4136 40.7104 47.3014 40.5817V41.497H38.792L38.7062 40.7247C38.6919 40.5102 39.7931 40.4101 39.5214 39.3661L36.5896 31.5432H27.8658L25.4774 37.6928C24.6623 39.6521 24.6623 41.1252 27.4939 40.7104V41.5542H19.0847L19.099 40.6675L20.8152 40.6389C22.5886 40.0383 22.9175 37.8788 23.5468 36.2627ZM28.495 29.8271H35.7601L32.3135 19.4014L28.495 29.8271Z" fill="#AC2C31"/>
<path d="M141.533 36.2627L150.743 12.0504C151.058 11.7501 151.358 11.793 151.673 12.0647L161.498 38.0504C162.213 39.7379 163.4 40.7104 165.302 40.5817V41.497H156.778L156.707 40.7247C156.678 40.5102 157.779 40.4101 157.508 39.3661L154.576 31.5432H145.852L143.464 37.6928C142.649 39.6521 142.649 41.1252 145.48 40.7104V41.5542H137.071L137.085 40.6675L138.816 40.6389C140.575 40.0383 140.918 37.8788 141.533 36.2627ZM146.481 29.8271H153.746L150.3 19.4014L146.481 29.8271Z" fill="#AC2C31"/>
</svg>
