<svg width="220" height="152" viewBox="0 0 220 152" fill="none" xmlns="http://www.w3.org/2000/svg">
<g clip-path="url(#clip0)">
<path fill-rule="evenodd" clip-rule="evenodd" d="M123.14 64.5482C120.572 66.3645 117.195 66.637 114.58 65.4569C114.58 65.4569 113.866 65.1844 113.201 64.458C112.629 63.7756 98.1709 48.2035 98.1709 48.2035L98.1239 48.1576C102.595 48.9298 107.493 46.8873 110.014 43.1642C112.534 39.6228 112.441 34.5832 110.062 31.0417C107.209 27.1826 101.643 25.912 96.9826 26.5011C88.8978 27.5911 83.0947 34.4471 81.2894 41.6215C79.4332 49.7926 80.7656 57.5109 83.668 64.7754C84.3321 66.3192 85.2369 67.9083 86.3308 69.269C77.8162 65.7294 70.3021 59.1912 66.3556 50.4277C61.9798 40.9843 62.0748 29.0438 67.2594 19.4642C71.349 12.0644 78.5775 5.20838 87.519 2.30208C96.8876 -1.37472 109.491 -0.603165 118.623 4.29971C129.704 9.56661 138.074 22.689 138.122 34.4019C138.502 46.5244 132.889 57.5109 123.14 64.5482Z" fill="#BFA161"/>
<path fill-rule="evenodd" clip-rule="evenodd" d="M92.0368 69.1345C87.8998 64.8653 84.5697 59.327 87.0915 53.5614C89.3256 49.1573 91.3232 44.6619 92.275 39.5763C92.655 44.8891 96.0331 49.6111 97.6483 54.6967C98.2664 57.1481 98.3152 59.6907 97.3164 62.2326C96.2225 65.0018 94.4621 67.362 92.3694 69.4961L92.0368 69.1345Z" fill="#BFA161"/>
<path fill-rule="evenodd" clip-rule="evenodd" d="M39.8533 117.112H28.8399C26.3994 113.457 24.1954 110.299 22.2155 107.64C20.2468 104.981 18.1121 102.237 15.8077 99.4098H11.6247V111.804C11.6247 112.443 11.7332 113.006 11.9404 113.495C12.1468 113.973 12.5995 114.351 13.2979 114.603C13.6425 114.735 14.2437 114.856 15.1093 114.961C15.9748 115.073 16.7043 115.139 17.3045 115.157V117.112H0.000228882V115.157C0.46323 115.119 1.13334 115.055 2.0088 114.961C2.88461 114.877 3.49465 114.753 3.83925 114.603C4.41147 114.368 4.83311 114.021 5.0897 113.561C5.35407 113.099 5.48343 112.517 5.48343 111.804V83.5571C5.48343 82.9089 5.38518 82.3459 5.1869 81.8479C5.0017 81.3492 4.54754 80.9735 3.83925 80.719C3.35752 80.5504 2.7284 80.4012 1.96003 80.268C1.1906 80.1277 0.5424 80.0436 0.000228882 80.0054V78.0509H18.8893C20.6215 78.0509 22.2448 78.2213 23.7614 78.5588C25.2752 78.8974 26.655 79.4417 27.8863 80.1927C29.0764 80.9272 30.032 81.886 30.7403 83.0693C31.4497 84.2534 31.8123 85.6812 31.8123 87.3544C31.8123 88.8579 31.567 90.1925 31.0842 91.3469C30.6011 92.5029 29.8928 93.4996 28.9583 94.3443C28.0924 95.1329 27.0476 95.821 25.8382 96.3932C24.628 96.976 23.2885 97.4651 21.833 97.8677C23.8497 100.423 25.5229 102.567 26.8624 104.315C28.2009 106.052 29.8327 108.176 31.7823 110.666C32.6291 111.775 33.3865 112.582 34.0778 113.108C34.7561 113.625 35.4343 114.059 36.1044 114.387C36.6063 114.622 37.2255 114.81 37.9829 114.941C38.7315 115.064 39.3525 115.139 39.8533 115.157V117.112ZM24.6863 87.9825C24.6863 85.6152 23.977 83.7455 22.5512 82.355C21.1336 80.9735 19.1148 80.279 16.5269 80.279H11.6247V97.0414H15.4047C18.052 97.0414 20.268 96.2338 22.0274 94.6069C23.8006 92.9829 24.6863 90.7736 24.6863 87.9825ZM65.9472 110.723C64.7568 112.894 63.161 114.613 61.1652 115.9C59.1654 117.187 56.8631 117.826 54.2732 117.826C51.979 117.826 49.9825 117.44 48.2602 116.67C46.5368 115.9 45.1192 114.856 44.0083 113.532C42.8961 112.215 42.0584 110.666 41.5085 108.908C40.9656 107.142 40.692 105.282 40.692 103.318C40.692 101.561 40.9864 99.8325 41.5668 98.1303C42.1567 96.431 43.0145 94.9084 44.1564 93.5459C45.2485 92.2484 46.6061 91.1956 48.2301 90.3979C49.8541 89.5984 51.6765 89.1965 53.6942 89.1965C55.77 89.1965 57.5513 89.5054 59.0283 90.1356C60.5138 90.7545 61.7162 91.6102 62.6319 92.6903C63.5155 93.7251 64.1747 94.9363 64.6087 96.3271C65.0424 97.7274 65.2587 99.2405 65.2587 100.866V102.689H46.4297C46.4297 104.464 46.6061 106.081 46.9595 107.527C47.3133 108.984 47.8763 110.252 48.6528 111.362C49.4014 112.423 50.3762 113.26 51.5874 113.88C52.7976 114.49 54.2452 114.801 55.9184 114.801C57.6294 114.801 59.1075 114.415 60.3455 113.654C61.578 112.894 62.7772 111.521 63.9294 109.537L65.9472 110.723ZM59.5793 100.376C59.5793 99.3437 59.4909 98.2445 59.3036 97.0693C59.1163 95.8952 58.8297 94.9183 58.4282 94.1287C57.9832 93.2833 57.3749 92.5969 56.6055 92.0611C55.8403 91.526 54.8443 91.2624 53.6341 91.2624C51.6164 91.2624 49.9432 92.0611 48.6037 93.6678C47.2663 95.2749 46.547 97.5111 46.4297 100.376H59.5793ZM82.0211 117.112H68.6311V115.361C69.0588 115.324 69.5148 115.279 70.0007 115.234C70.4856 115.198 70.8833 115.124 71.1978 115.035C71.7198 114.88 72.1086 114.598 72.3659 114.2C72.6225 113.801 72.7646 113.282 72.7557 112.648L72.3189 83.6613C72.315 83.3337 72.1648 82.3879 71.9842 81.7358C71.9022 81.4403 71.8138 81.2029 71.7297 81.1117C71.6407 81.0145 71.6106 80.9152 71.4862 80.8091C71.0055 80.3984 71.6025 80.9685 71.1536 80.5875C70.8571 80.3352 71.2759 80.4924 70.3863 80.3171C69.5038 80.1429 68.0268 80.5324 67.485 80.4963L67.4369 78.586L77.4214 78.0668L77.8965 78.4546L77.9353 112.331C77.9353 112.948 78.0538 113.454 78.2962 113.855C78.5366 114.251 78.9243 114.563 79.4654 114.771C79.8729 114.953 80.2716 115.08 80.6706 115.17C81.0714 115.261 81.5259 115.324 82.0211 115.361V117.112ZM99.2271 117.112H85.5936V115.312C86.0336 115.277 86.4804 115.239 86.949 115.201C87.4191 115.165 87.8178 115.091 88.1595 114.978C88.6975 114.82 89.0983 114.531 89.3506 114.121C89.6041 113.711 89.7422 113.179 89.7422 112.527V95.9051C89.7422 95.3191 89.5952 94.7872 89.3217 94.3023C89.0481 93.8184 88.6572 93.4176 88.1595 93.0921C87.7998 92.8684 87.2816 92.6821 86.5896 92.5329C85.9053 92.3746 85.2812 92.2813 84.7051 92.2435V90.4742L94.6607 89.868L95.0604 90.2508V112.202C95.0604 112.836 95.1866 113.366 95.441 113.785C95.6945 114.196 96.1052 114.511 96.6611 114.708C97.0799 114.876 97.491 115.006 97.8907 115.108C98.2905 115.201 98.7291 115.277 99.2271 115.312V117.112ZM95.6262 79.2561C95.6262 80.2899 95.2746 81.1937 94.5525 81.9673C93.84 82.7396 92.9624 83.1316 91.9074 83.1316C90.9415 83.1316 90.0921 82.7598 89.3796 82.0232C88.6674 81.287 88.3055 80.4384 88.3055 79.4976C88.3055 78.4917 88.6674 77.625 89.3796 76.8796C90.0921 76.1342 90.9415 75.7617 91.9074 75.7617C93.0013 75.7617 93.8891 76.1063 94.5815 76.8064C95.2746 77.513 95.6262 78.3234 95.6262 79.2561ZM129.64 116.614C128.734 116.923 127.947 117.177 127.268 117.374C126.579 117.563 125.811 117.666 124.946 117.666C123.439 117.666 122.249 117.327 121.352 116.661C120.457 115.985 119.886 115.007 119.639 113.729H119.463C118.213 115.044 116.874 116.059 115.436 116.755C114.008 117.449 112.287 117.798 110.269 117.798C108.134 117.798 106.381 117.177 105.004 115.928C103.625 114.678 102.936 113.044 102.936 111.033C102.936 109.98 103.094 109.05 103.399 108.223C103.714 107.397 104.167 106.653 104.787 105.987C105.269 105.442 105.899 104.953 106.687 104.52C107.473 104.089 108.222 103.741 108.911 103.486C109.777 103.178 111.529 102.595 114.168 101.748C116.816 100.902 118.597 100.246 119.522 99.7664V97.0414C119.522 96.806 119.473 96.3459 119.364 95.6697C119.255 94.9936 119.03 94.3443 118.685 93.7431C118.301 93.0578 117.758 92.4658 117.05 91.9678C116.353 91.4589 115.358 91.2065 114.069 91.2065C113.183 91.2065 112.366 91.3468 111.607 91.6381C110.85 91.9208 110.309 92.2202 110.004 92.5319C110.004 92.8984 110.092 93.4325 110.281 94.156C110.465 94.8703 110.555 95.5283 110.555 96.1398C110.555 96.7777 110.25 97.3609 109.65 97.896C109.039 98.4329 108.203 98.6955 107.12 98.6955C106.165 98.6955 105.457 98.3668 105.004 97.7186C104.55 97.0693 104.325 96.3359 104.325 95.5283C104.325 94.6818 104.64 93.8753 105.26 93.1041C105.89 92.3347 106.696 91.6472 107.702 91.046C108.567 90.5293 109.609 90.0974 110.84 89.7306C112.07 89.374 113.271 89.1965 114.444 89.1965C116.057 89.1965 117.465 89.3089 118.676 89.5143C119.875 89.7217 120.959 90.1816 121.942 90.8778C122.927 91.554 123.665 92.474 124.178 93.6389C124.689 94.8063 124.946 96.3091 124.946 98.1402C124.946 100.771 124.916 103.094 124.856 105.121C124.798 107.152 124.768 109.369 124.768 111.775C124.768 112.489 124.895 113.053 125.161 113.475C125.418 113.899 125.821 114.256 126.353 114.556C126.648 114.715 127.102 114.81 127.72 114.828C128.35 114.846 128.991 114.857 129.64 114.857V116.614V116.614ZM119.581 102.077C117.947 102.538 116.509 102.988 115.279 103.43C114.049 103.873 112.906 104.417 111.855 105.084C110.889 105.706 110.131 106.448 109.569 107.301C109.018 108.148 108.733 109.163 108.733 110.337C108.733 111.859 109.158 112.986 109.993 113.7C110.832 114.415 111.894 114.772 113.172 114.772C114.541 114.772 115.742 114.453 116.785 113.824C117.82 113.193 118.694 112.443 119.403 111.578L119.581 102.077ZM163.863 117.112H149.937V115.298C150.378 115.261 150.87 115.223 151.392 115.186C151.925 115.148 152.356 115.073 152.712 114.961C153.243 114.801 153.646 114.509 153.903 114.096C154.167 113.682 154.297 113.147 154.297 112.489V98.5262C154.297 96.5996 153.815 95.1159 152.868 94.0718C151.914 93.0288 150.752 92.5029 149.394 92.5029C148.372 92.5029 147.437 92.6531 146.588 92.9535C145.753 93.2543 144.994 93.63 144.345 94.0718C143.715 94.4945 143.203 94.9462 142.828 95.4354C142.455 95.9231 142.18 96.3091 142.013 96.5996V112.215C142.013 112.836 142.14 113.354 142.417 113.757C142.683 114.16 143.085 114.472 143.627 114.688C144.03 114.876 144.462 115.007 144.935 115.102C145.408 115.194 145.891 115.261 146.393 115.298V117.112H132.465V115.298C132.907 115.261 133.36 115.223 133.832 115.186C134.305 115.148 134.71 115.073 135.063 114.961C135.595 114.801 135.997 114.509 136.255 114.096C136.522 113.682 136.649 113.147 136.649 112.489V95.7248C136.649 95.0957 136.51 94.5224 136.225 94.0057C135.949 93.4798 135.556 93.049 135.063 92.7192C134.699 92.5029 134.265 92.3435 133.763 92.2392C133.263 92.136 132.721 92.071 132.149 92.0328V90.2487L141.608 89.6376L142.013 90.0222V93.8464H142.15C142.613 93.4145 143.194 92.8786 143.881 92.2683C144.571 91.6572 145.232 91.1492 145.842 90.7658C146.56 90.3236 147.407 89.956 148.38 89.6645C149.366 89.3739 150.467 89.2237 151.699 89.2237C154.424 89.2237 156.452 90.0402 157.77 91.6572C159.09 93.2833 159.738 95.4442 159.738 98.1402V112.264C159.738 112.911 159.858 113.429 160.094 113.824C160.32 114.218 160.714 114.528 161.275 114.744C161.736 114.932 162.13 115.055 162.466 115.128C162.801 115.203 163.273 115.261 163.863 115.298V117.112ZM180.507 117.826C176.393 117.826 173.175 116.52 170.842 113.917C168.518 111.315 167.358 107.818 167.358 103.43C167.358 101.524 167.673 99.7384 168.293 98.0752C168.924 96.4123 169.828 94.9084 171.02 93.5459C172.151 92.2484 173.578 91.1956 175.291 90.3979C176.994 89.5984 178.863 89.1965 180.881 89.1965C183.667 89.1965 185.942 89.8348 187.683 91.1122C189.436 92.3895 190.312 94.1287 190.312 96.3271C190.312 97.2478 190.084 98.0551 189.622 98.7616C189.16 99.4738 188.4 99.8236 187.337 99.8236C186.206 99.8236 185.33 99.549 184.7 98.9948C184.08 98.4509 183.765 97.8306 183.765 97.1535C183.765 96.3271 183.884 95.4813 184.11 94.6069C184.346 93.7343 184.474 93.096 184.512 92.6903C184.169 92.1272 183.657 91.7423 182.969 91.5539C182.29 91.3557 181.551 91.2624 180.762 91.2624C179.849 91.2624 178.964 91.4508 178.126 91.8265C177.289 92.2022 176.482 92.8984 175.694 93.9025C174.976 94.8243 174.406 96.0645 173.961 97.6235C173.52 99.1843 173.292 101.044 173.292 103.206C173.292 106.625 174.089 109.406 175.675 111.567C177.258 113.72 179.347 114.801 181.915 114.801C183.785 114.801 185.35 114.368 186.611 113.504C187.861 112.639 189.03 111.351 190.105 109.623L191.955 110.779C190.685 112.949 189.012 114.66 186.935 115.928C184.858 117.197 182.713 117.826 180.507 117.826ZM219.435 110.723C218.245 112.894 216.651 114.613 214.653 115.9C212.654 117.187 210.351 117.826 207.763 117.826C205.469 117.826 203.471 117.44 201.749 116.67C200.026 115.9 198.608 114.856 197.495 113.532C196.385 112.215 195.548 110.666 194.997 108.908C194.455 107.142 194.178 105.282 194.178 103.318C194.178 101.561 194.473 99.8325 195.056 98.1303C195.645 96.431 196.503 94.9084 197.643 93.5459C198.737 92.2484 200.094 91.1956 201.719 90.3979C203.343 89.5984 205.164 89.1965 207.181 89.1965C209.259 89.1965 211.039 89.5054 212.515 90.1356C214.003 90.7545 215.204 91.6102 216.119 92.6903C217.004 93.7251 217.663 94.9363 218.096 96.3271C218.53 97.7274 218.747 99.2405 218.747 100.866V102.689H199.917C199.917 104.464 200.094 106.081 200.449 107.527C200.802 108.984 201.365 110.252 202.143 111.362C202.891 112.423 203.865 113.26 205.074 113.88C206.285 114.49 207.732 114.801 209.405 114.801C211.12 114.801 212.595 114.415 213.835 113.654C215.065 112.894 216.267 111.521 217.418 109.537L219.435 110.723ZM213.067 100.376C213.067 99.3437 212.979 98.2445 212.792 97.0693C212.604 95.8952 212.319 94.9183 211.917 94.1287C211.472 93.2833 210.863 92.5969 210.096 92.0611C209.327 91.526 208.334 91.2624 207.123 91.2624C205.104 91.2624 203.432 92.0611 202.092 93.6678C200.753 95.2749 200.036 97.5111 199.917 100.376H213.067Z" fill="#1F1917"/>
<path d="M8.02216 151.529H0.0111694V150.723C0.238782 150.705 0.562185 150.684 0.990903 150.653C1.41785 150.625 1.71757 150.58 1.89287 150.517C2.16537 150.421 2.36648 150.286 2.49584 150.116C2.61918 149.945 2.68033 149.708 2.68033 149.406V137.742C2.68033 137.48 2.6372 137.258 2.54284 137.08C2.45271 136.902 2.23429 136.755 1.89287 136.632C1.64016 136.542 1.32879 136.457 0.948137 136.376C0.566426 136.299 0.255747 136.252 0.0111694 136.236V135.431H8.02216V136.236C7.76061 136.243 7.45313 136.272 7.09227 136.322C6.73388 136.368 6.42109 136.434 6.15177 136.508C5.83615 136.601 5.62161 136.747 5.51558 136.949C5.40425 137.154 5.35301 137.383 5.35301 137.63V149.283C5.35301 149.53 5.41133 149.751 5.53256 149.945C5.65166 150.139 5.86195 150.293 6.15177 150.405C6.32707 150.468 6.61441 150.532 7.01238 150.604C7.40611 150.676 7.74259 150.715 8.02216 150.723V151.529Z" fill="#1F1917"/>
<path d="M24.1841 151.529H18.134V150.781C18.3262 150.767 18.5397 150.749 18.7663 150.734C18.9978 150.72 19.1858 150.688 19.3392 150.641C19.5717 150.575 19.746 150.456 19.8573 150.286C19.9732 150.116 20.0294 149.894 20.0294 149.624V143.868C20.0294 143.074 19.8192 142.463 19.4095 142.034C18.9935 141.604 18.4895 141.386 17.8996 141.386C17.4536 141.386 17.0468 141.449 16.6803 141.573C16.3166 141.696 15.9868 141.851 15.7044 142.034C15.4319 142.208 15.2086 142.393 15.0474 142.596C14.8848 142.796 14.7636 142.955 14.6926 143.074V149.51C14.6926 149.767 14.7466 149.98 14.8668 150.147C14.982 150.313 15.1573 150.44 15.3927 150.529C15.5684 150.606 15.7557 150.662 15.961 150.7C16.1675 150.738 16.3767 150.766 16.5951 150.781V151.529H10.5439V150.781C10.7362 150.767 10.9327 150.749 11.1381 150.734C11.3434 150.72 11.5187 150.688 11.6728 150.641C11.9032 150.575 12.0796 150.456 12.1888 150.286C12.3062 150.116 12.3613 149.894 12.3613 149.624V142.715C12.3613 142.455 12.3012 142.219 12.1768 142.006C12.0577 141.789 11.8863 141.612 11.6728 141.477C11.5148 141.386 11.3264 141.32 11.108 141.278C10.8896 141.236 10.6542 141.208 10.4075 141.193V140.456L14.5162 140.206L14.6926 140.364V141.94H14.7505C14.952 141.762 15.2047 141.542 15.5051 141.29C15.8038 141.038 16.0893 140.829 16.3548 140.67C16.6662 140.489 17.0348 140.336 17.4589 140.217C17.8866 140.098 18.3655 140.036 18.8995 140.036C20.0835 140.036 20.9653 140.372 21.5372 141.038C22.1115 141.708 22.3939 142.6 22.3939 143.709V149.53C22.3939 149.798 22.4452 150.01 22.5473 150.173C22.6463 150.336 22.8166 150.464 23.0602 150.552C23.2616 150.631 23.432 150.68 23.5783 150.711C23.7236 150.743 23.9289 150.766 24.1841 150.781V151.529Z" fill="#1F1917"/>
<path d="M39.8533 151.324L35.5435 151.574L35.3552 151.415V150.37L35.2558 150.349C34.8201 150.791 34.286 151.147 33.6438 151.429C33.0066 151.709 32.3485 151.848 31.6723 151.848C30.9708 151.848 30.2915 151.704 29.6366 151.421C28.9831 151.139 28.4101 150.739 27.9263 150.224C27.4354 149.702 27.0406 149.075 26.755 148.343C26.4677 147.607 26.3231 146.798 26.3231 145.915C26.3231 145.106 26.4765 144.34 26.784 143.611C27.0968 142.887 27.5195 142.253 28.0634 141.705C28.5724 141.198 29.1965 140.795 29.937 140.49C30.6764 140.188 31.4288 140.038 32.1993 140.038C32.7761 140.038 33.3402 140.104 33.8972 140.235C34.4525 140.37 34.9314 140.536 35.329 140.742V136.851C35.329 136.532 35.2728 136.241 35.1537 135.983C35.0385 135.719 34.8752 135.521 34.666 135.386C34.4313 135.243 34.1188 135.139 33.7209 135.072C33.3243 135.01 32.8956 134.965 32.4375 134.933V134.229L37.485 133.969L37.6723 134.139V149.226C37.6723 149.493 37.7274 149.718 37.8437 149.904C37.954 150.086 38.1212 150.244 38.3396 150.372C38.4979 150.466 38.7245 150.519 39.0281 150.542C39.3285 150.563 39.601 150.581 39.8533 150.589V151.326V151.324ZM35.329 149.359V142.816C35.265 142.618 35.1537 142.408 35.0046 142.181C34.854 141.952 34.666 141.747 34.4394 141.557C34.1998 141.367 33.9135 141.208 33.5876 141.085C33.2632 140.961 32.8825 140.899 32.4506 140.899C31.9466 140.899 31.484 141.015 31.0662 141.251C30.6424 141.482 30.2706 141.821 29.9462 142.259C29.6323 142.684 29.3888 143.222 29.2096 143.876C29.0304 144.531 28.9403 145.254 28.9403 146.049C28.9403 146.684 29.0092 147.261 29.1414 147.78C29.2736 148.299 29.5001 148.78 29.8168 149.224C30.1123 149.651 30.4841 149.99 30.9418 150.247C31.3945 150.502 31.9335 150.634 32.563 150.634C33.2292 150.634 33.7852 150.499 34.2221 150.235C34.6628 149.972 35.0303 149.678 35.329 149.359Z" fill="#1F1917"/>
<path d="M54.9185 151.324L50.8939 151.574L50.7066 151.415V149.994H50.6334C50.433 150.185 50.2068 150.389 49.953 150.604C49.7067 150.82 49.4151 151.014 49.0906 151.188C48.7139 151.393 48.3502 151.548 48.0007 151.652C47.6479 151.76 47.152 151.811 46.5116 151.811C45.4156 151.811 44.5833 151.49 44.01 150.844C43.441 150.196 43.1536 149.256 43.1536 148.023V142.667C43.1536 142.396 43.0953 142.169 42.9833 141.983C42.8719 141.797 42.7058 141.635 42.4874 141.498C42.3368 141.41 42.1495 141.344 41.9272 141.302C41.7 141.259 41.4603 141.232 41.2129 141.216V140.477L45.3315 140.206L45.5199 140.364V148.136C45.5199 148.946 45.7203 149.554 46.1221 149.964C46.5247 150.37 47.0036 150.575 47.5638 150.575C48.0204 150.575 48.4315 150.509 48.7899 150.381C49.1486 150.255 49.4494 150.103 49.6925 149.929C49.9191 149.771 50.1156 149.6 50.2877 149.426C50.4592 149.248 50.5913 149.081 50.6804 148.93V142.588C50.6804 142.339 50.6263 142.119 50.5051 141.925C50.3909 141.731 50.2277 141.569 50.0184 141.433C49.8689 141.34 49.6466 141.286 49.3469 141.267C49.0514 141.249 48.7188 141.231 48.3502 141.216V140.477L52.8367 140.206L53.0247 140.364V149.248C53.0247 149.506 53.0852 149.724 53.1993 149.906C53.3185 150.088 53.4828 150.243 53.691 150.37C53.8415 150.456 54.0207 150.509 54.2261 150.537C54.4357 150.558 54.6661 150.58 54.9185 150.587V151.324Z" fill="#1F1917"/>
<path d="M65.2079 146.049C65.5486 146.32 65.8151 146.633 65.9993 146.99C66.1827 147.347 66.2718 147.781 66.2718 148.296C66.2718 149.332 65.8452 150.177 64.9895 150.836C64.1349 151.495 63.0226 151.823 61.6633 151.823C60.9437 151.823 60.2806 151.708 59.6773 151.471C59.0705 151.238 58.6386 151.022 58.3771 150.824L58.1307 151.564H57.1899L57.0647 147.672H57.9292C57.9975 147.966 58.1385 148.311 58.3562 148.701C58.5704 149.097 58.8358 149.454 59.1437 149.771C59.4692 150.104 59.8618 150.381 60.3156 150.611C60.7737 150.836 61.2827 150.951 61.8506 150.951C62.6551 150.951 63.2693 150.785 63.7061 150.457C64.1388 150.127 64.3551 149.658 64.3551 149.042C64.3551 148.725 64.2883 148.455 64.1519 148.221C64.0094 147.989 63.8094 147.789 63.5436 147.613C63.2651 147.44 62.9275 147.285 62.5257 147.145C62.1242 147.006 61.6803 146.867 61.1872 146.732C60.7935 146.622 60.3577 146.479 59.8777 146.293C59.396 146.108 58.9853 145.891 58.6435 145.639C58.276 145.376 57.9752 145.05 57.7409 144.668C57.5055 144.279 57.3913 143.827 57.3913 143.304C57.3913 142.389 57.767 141.612 58.5195 140.976C59.2716 140.341 60.2768 140.024 61.5389 140.024C62.022 140.024 62.5168 140.082 63.0226 140.195C63.5277 140.311 63.9373 140.447 64.2579 140.605L64.5434 140.012H65.4483L65.6356 143.61H64.7711C64.5957 142.808 64.2151 142.158 63.6341 141.655C63.0569 141.15 62.3465 140.9 61.5131 140.9C60.8278 140.9 60.2895 141.054 59.8958 141.364C59.502 141.673 59.3048 142.049 59.3048 142.487C59.3048 142.827 59.3698 143.111 59.502 143.339C59.6314 143.563 59.8237 143.757 60.0842 143.915C60.3369 144.067 60.6482 144.209 61.0289 144.342C61.4099 144.473 61.8807 144.624 62.4416 144.79C62.9926 144.949 63.5096 145.136 63.9967 145.345C64.4894 145.557 64.8912 145.794 65.2079 146.049Z" fill="#1F1917"/>
<path d="M76.3905 151.04C75.8455 151.245 75.3327 151.415 74.8506 151.555C74.3618 151.696 73.7726 151.768 73.0714 151.768C72.0365 151.768 71.306 151.53 70.8864 151.056C70.4623 150.584 70.2531 149.918 70.2531 149.054V141.477H68.0208V140.388H70.3001V136.906H72.5843V140.388H76.1289V141.477H72.6056V147.731C72.6056 148.198 72.6264 148.59 72.6646 148.904C72.6985 149.216 72.7897 149.492 72.9342 149.724C73.0664 149.946 73.2675 150.112 73.5333 150.223C73.8016 150.336 74.1614 150.393 74.6113 150.393C74.8205 150.393 75.1273 150.379 75.5299 150.343C75.9367 150.308 76.2223 150.266 76.3905 150.211V151.04Z" fill="#1F1917"/>
<path d="M87.6955 141.782C87.6955 142.169 87.5895 142.509 87.3841 142.812C87.1735 143.11 86.854 143.257 86.4171 143.257C85.9502 143.257 85.5915 143.149 85.3483 142.928C85.0999 142.711 84.9765 142.467 84.9765 142.204C84.9765 142.037 84.9935 141.885 85.0196 141.751C85.0486 141.612 85.0786 141.476 85.0999 141.34C84.71 141.34 84.2491 141.482 83.7232 141.77C83.1973 142.06 82.7513 142.467 82.3837 142.997V149.51C82.3837 149.775 82.4399 149.99 82.5519 150.155C82.6671 150.321 82.8425 150.448 83.086 150.529C83.2952 150.606 83.5638 150.662 83.8946 150.7C84.2241 150.738 84.5096 150.766 84.7489 150.781V151.529H78.2358V150.781C78.4284 150.767 78.6246 150.749 78.831 150.734C79.0356 150.72 79.2116 150.688 79.365 150.641C79.5965 150.575 79.7707 150.456 79.8831 150.286C79.9984 150.116 80.0542 149.894 80.0542 149.624V142.715C80.0542 142.479 79.9931 142.251 79.8711 142.021C79.7499 141.793 79.5785 141.612 79.365 141.477C79.2067 141.386 79.0183 141.32 78.7998 141.278C78.5835 141.236 78.3482 141.208 78.0997 141.193V140.456L82.2095 140.206L82.3837 140.364V141.94H82.4438C82.9616 141.328 83.5387 140.863 84.176 140.547C84.8093 140.229 85.3914 140.07 85.9174 140.07C86.4433 140.07 86.8709 140.225 87.2007 140.535C87.5283 140.844 87.6955 141.263 87.6955 141.782Z" fill="#1F1917"/>
<path d="M95.3668 151.529H89.3926V150.781C89.5849 150.767 89.7814 150.749 89.9868 150.734C90.1932 150.72 90.3674 150.688 90.5169 150.641C90.7534 150.575 90.9287 150.456 91.0386 150.286C91.151 150.116 91.21 149.894 91.21 149.624V142.715C91.21 142.471 91.146 142.251 91.0266 142.049C90.9064 141.847 90.736 141.681 90.5169 141.545C90.3596 141.452 90.132 141.374 89.8295 141.312C89.5291 141.248 89.2566 141.208 89.0028 141.193V140.456L93.366 140.206L93.5405 140.364V149.488C93.5405 149.751 93.5975 149.972 93.7067 150.147C93.8191 150.317 93.9983 150.448 94.2418 150.529C94.4259 150.599 94.6055 150.653 94.7808 150.696C94.9561 150.734 95.1483 150.766 95.3668 150.781V151.529ZM93.7897 135.795C93.7897 136.224 93.6356 136.6 93.319 136.921C93.0065 137.243 92.6216 137.406 92.1597 137.406C91.737 137.406 91.3652 137.25 91.0517 136.945C90.7403 136.639 90.5819 136.287 90.5819 135.895C90.5819 135.478 90.7403 135.117 91.0517 134.808C91.3652 134.498 91.737 134.342 92.1597 134.342C92.6386 134.342 93.0284 134.487 93.331 134.777C93.6356 135.07 93.7897 135.407 93.7897 135.795Z" fill="#1F1917"/>
<path d="M108.477 148.896C107.96 149.79 107.268 150.5 106.4 151.029C105.531 151.56 104.53 151.823 103.407 151.823C102.41 151.823 101.541 151.665 100.793 151.347C100.045 151.028 99.4296 150.6 98.9447 150.053C98.4626 149.511 98.0989 148.871 97.8596 148.147C97.6242 147.421 97.5048 146.654 97.5048 145.845C97.5048 145.12 97.632 144.407 97.8854 143.706C98.1409 143.005 98.5128 142.379 99.0097 141.818C99.4844 141.283 100.075 140.849 100.78 140.519C101.486 140.19 102.278 140.024 103.154 140.024C104.056 140.024 104.83 140.151 105.473 140.411C106.117 140.666 106.639 141.019 107.037 141.465C107.421 141.89 107.709 142.389 107.897 142.964C108.086 143.54 108.179 144.164 108.179 144.834V145.585H99.9976C99.9976 146.317 100.075 146.982 100.229 147.579C100.382 148.179 100.626 148.701 100.964 149.159C101.29 149.597 101.712 149.942 102.239 150.196C102.765 150.448 103.394 150.576 104.121 150.576C104.865 150.576 105.506 150.417 106.044 150.104C106.58 149.79 107.102 149.224 107.602 148.408L108.477 148.896ZM105.71 144.632C105.71 144.207 105.672 143.753 105.592 143.269C105.51 142.785 105.386 142.382 105.211 142.056C105.019 141.708 104.753 141.426 104.42 141.204C104.087 140.984 103.654 140.876 103.128 140.876C102.252 140.876 101.523 141.204 100.943 141.867C100.362 142.529 100.048 143.452 99.9976 144.632H105.71Z" fill="#1F1917"/>
<path d="M118.68 146.049C119.023 146.32 119.289 146.633 119.472 146.99C119.656 147.347 119.746 147.781 119.746 148.296C119.746 149.332 119.319 150.177 118.463 150.836C117.608 151.495 116.496 151.823 115.136 151.823C114.419 151.823 113.754 151.708 113.151 151.471C112.545 151.238 112.112 151.022 111.852 150.824L111.604 151.564H110.663L110.538 147.672H111.403C111.47 147.966 111.613 148.311 111.831 148.701C112.045 149.097 112.308 149.454 112.617 149.771C112.943 150.104 113.335 150.381 113.788 150.611C114.246 150.836 114.755 150.951 115.324 150.951C116.128 150.951 116.744 150.785 117.18 150.457C117.613 150.127 117.83 149.658 117.83 149.042C117.83 148.725 117.762 148.455 117.625 148.221C117.483 147.989 117.283 147.789 117.017 147.613C116.739 147.44 116.401 147.285 115.999 147.145C115.598 147.006 115.153 146.867 114.662 146.732C114.268 146.622 113.831 146.479 113.353 146.293C112.868 146.108 112.459 145.891 112.116 145.639C111.748 145.376 111.45 145.05 111.214 144.668C110.979 144.279 110.864 143.827 110.864 143.304C110.864 142.389 111.239 141.612 111.993 140.976C112.745 140.341 113.75 140.024 115.012 140.024C115.494 140.024 115.991 140.082 116.496 140.195C117 140.311 117.411 140.447 117.732 140.605L118.018 140.012H118.921L119.109 143.61H118.244C118.069 142.808 117.689 142.158 117.106 141.655C116.53 141.15 115.819 140.9 114.986 140.9C114.301 140.9 113.762 141.054 113.37 141.364C112.976 141.673 112.779 142.049 112.779 142.487C112.779 142.827 112.844 143.111 112.976 143.339C113.105 143.563 113.297 143.757 113.558 143.915C113.81 144.067 114.122 144.209 114.503 144.342C114.883 144.473 115.354 144.624 115.914 144.79C116.466 144.949 116.983 145.136 117.471 145.345C117.963 145.557 118.365 145.794 118.68 146.049Z" fill="#1F1917"/>
<path d="M142.402 146.742L142.027 151.529H128.133V150.723C128.333 150.705 128.624 150.68 129.004 150.641C129.385 150.606 129.651 150.555 129.8 150.495C130.048 150.397 130.232 150.255 130.343 150.065C130.458 149.874 130.513 149.636 130.513 149.34V137.813C130.513 137.556 130.467 137.329 130.368 137.131C130.275 136.933 130.082 136.775 129.8 136.656C129.607 136.566 129.338 136.477 128.991 136.387C128.645 136.303 128.358 136.252 128.133 136.236V135.431H135.637V136.236C135.402 136.243 135.103 136.279 134.731 136.349C134.359 136.418 134.089 136.477 133.923 136.53C133.636 136.62 133.444 136.775 133.336 136.996C133.234 137.215 133.182 137.448 133.182 137.7V148.512C133.182 149.01 133.208 149.398 133.264 149.674C133.318 149.949 133.444 150.161 133.645 150.317C133.838 150.452 134.123 150.54 134.504 150.58C134.885 150.622 135.414 150.641 136.1 150.641C136.411 150.641 136.732 150.639 137.067 150.624C137.4 150.606 137.716 150.577 138.02 150.531C138.31 150.485 138.58 150.423 138.828 150.345C139.072 150.263 139.255 150.163 139.37 150.042C139.712 149.694 140.11 149.167 140.568 148.463C141.022 147.755 141.339 147.182 141.514 146.744H142.402V146.742Z" fill="#1F1917"/>
<path d="M149.911 151.529H143.938V150.781C144.13 150.767 144.327 150.749 144.532 150.734C144.738 150.72 144.913 150.688 145.062 150.641C145.298 150.575 145.472 150.456 145.583 150.286C145.695 150.116 145.754 149.894 145.754 149.624V142.715C145.754 142.471 145.691 142.251 145.57 142.049C145.452 141.847 145.28 141.681 145.062 141.545C144.904 141.452 144.677 141.374 144.373 141.312C144.073 141.248 143.8 141.208 143.547 141.193V140.456L147.911 140.206L148.086 140.364V149.488C148.086 149.751 148.141 149.972 148.252 150.147C148.363 150.317 148.543 150.448 148.786 150.529C148.971 150.599 149.15 150.653 149.324 150.696C149.5 150.734 149.693 150.766 149.911 150.781V151.529ZM148.333 135.795C148.333 136.224 148.179 136.6 147.863 136.921C147.551 137.243 147.166 137.406 146.704 137.406C146.28 137.406 145.908 137.25 145.596 136.945C145.285 136.639 145.126 136.287 145.126 135.895C145.126 135.478 145.285 135.117 145.596 134.808C145.908 134.498 146.28 134.342 146.704 134.342C147.183 134.342 147.572 134.487 147.876 134.777C148.179 135.07 148.333 135.407 148.333 135.795Z" fill="#1F1917"/>
<path d="M173.209 151.529H167.184V150.781C167.376 150.767 167.568 150.749 167.765 150.734C167.962 150.72 168.136 150.688 168.287 150.641C168.522 150.575 168.692 150.456 168.804 150.286C168.919 150.116 168.976 149.894 168.976 149.624V143.85C168.976 143.06 168.779 142.455 168.382 142.025C167.983 141.6 167.487 141.386 166.897 141.386C166.486 141.386 166.102 141.444 165.743 141.557C165.384 141.669 165.054 141.829 164.754 142.034C164.51 142.2 164.31 142.378 164.148 142.57C163.98 142.766 163.86 142.924 163.774 143.055V149.51C163.774 149.775 163.826 149.99 163.924 150.161C164.027 150.332 164.198 150.464 164.438 150.552C164.631 150.622 164.806 150.674 164.959 150.707C165.113 150.739 165.314 150.766 165.568 150.781V151.529H159.666V150.781C159.858 150.767 160.046 150.749 160.225 150.734C160.405 150.72 160.567 150.688 160.717 150.641C160.953 150.575 161.123 150.456 161.239 150.286C161.35 150.116 161.407 149.894 161.407 149.624V143.85C161.407 143.06 161.209 142.455 160.811 142.025C160.414 141.6 159.922 141.386 159.328 141.386C158.916 141.386 158.535 141.444 158.177 141.561C157.818 141.681 157.485 141.839 157.184 142.044C156.941 142.211 156.741 142.396 156.574 142.606C156.408 142.816 156.278 142.97 156.197 143.074V149.488C156.197 149.744 156.252 149.96 156.373 150.135C156.487 150.309 156.662 150.44 156.899 150.529C157.074 150.606 157.253 150.662 157.436 150.7C157.621 150.738 157.827 150.766 158.05 150.781V151.529H152.049V150.781C152.242 150.767 152.438 150.749 152.644 150.734C152.848 150.72 153.024 150.688 153.178 150.641C153.409 150.575 153.584 150.456 153.696 150.286C153.811 150.116 153.867 149.894 153.867 149.624V142.668C153.867 142.425 153.806 142.208 153.682 142.013C153.563 141.825 153.392 141.659 153.178 141.521C153.02 141.433 152.824 141.359 152.588 141.302C152.352 141.244 152.112 141.208 151.861 141.193V140.456L155.996 140.206L156.172 140.364V141.964H156.256C156.467 141.774 156.723 141.552 157.023 141.294C157.322 141.038 157.604 140.829 157.861 140.67C158.155 140.489 158.519 140.336 158.96 140.217C159.396 140.098 159.87 140.036 160.38 140.036C161.183 140.036 161.872 140.233 162.449 140.621C163.022 141.011 163.436 141.48 163.69 142.034C163.988 141.766 164.254 141.534 164.485 141.336C164.711 141.136 165.016 140.922 165.391 140.693C165.708 140.496 166.084 140.336 166.512 140.217C166.944 140.098 167.423 140.036 167.949 140.036C168.993 140.036 169.817 140.344 170.429 140.965C171.037 141.589 171.344 142.54 171.344 143.827V149.51C171.344 149.775 171.391 149.99 171.494 150.161C171.593 150.332 171.763 150.464 172.008 150.552C172.201 150.622 172.388 150.674 172.577 150.707C172.765 150.739 172.977 150.766 173.209 150.781V151.529Z" fill="#1F1917"/>
<path d="M181.269 151.529H175.295V150.781C175.488 150.767 175.684 150.749 175.89 150.734C176.095 150.72 176.27 150.688 176.42 150.641C176.655 150.575 176.831 150.456 176.941 150.286C177.053 150.116 177.113 149.894 177.113 149.624V142.715C177.113 142.471 177.049 142.251 176.928 142.049C176.808 141.847 176.638 141.681 176.42 141.545C176.262 141.452 176.035 141.374 175.731 141.312C175.432 141.248 175.16 141.208 174.906 141.193V140.456L179.268 140.206L179.444 140.364V149.488C179.444 149.751 179.499 149.972 179.61 150.147C179.722 150.317 179.901 150.448 180.145 150.529C180.328 150.599 180.507 150.653 180.685 150.696C180.859 150.734 181.051 150.766 181.269 150.781V151.529ZM179.692 135.795C179.692 136.224 179.539 136.6 179.22 136.921C178.91 137.243 178.525 137.406 178.062 137.406C177.639 137.406 177.267 137.25 176.955 136.945C176.642 136.639 176.485 136.287 176.485 135.895C176.485 135.478 176.642 135.117 176.955 134.808C177.267 134.498 177.639 134.342 178.062 134.342C178.542 134.342 178.93 134.487 179.234 134.777C179.539 135.07 179.692 135.407 179.692 135.795Z" fill="#1F1917"/>
<path d="M191.036 151.04C190.493 151.245 189.981 151.415 189.497 151.555C189.009 151.696 188.418 151.768 187.718 151.768C186.683 151.768 185.951 151.53 185.533 151.056C185.11 150.584 184.9 149.918 184.9 149.054V141.477H182.667V140.388H184.947V136.906H187.23V140.388H190.775V141.477H187.252V147.731C187.252 148.198 187.273 148.59 187.311 148.904C187.346 149.216 187.436 149.492 187.581 149.724C187.714 149.946 187.915 150.112 188.179 150.223C188.449 150.336 188.808 150.393 189.258 150.393C189.467 150.393 189.775 150.379 190.176 150.343C190.583 150.308 190.87 150.266 191.036 150.211V151.04Z" fill="#1F1917"/>
<path d="M203.857 148.896C203.339 149.79 202.647 150.5 201.778 151.029C200.91 151.56 199.91 151.823 198.784 151.823C197.788 151.823 196.921 151.665 196.172 151.347C195.423 151.028 194.807 150.6 194.324 150.053C193.84 149.511 193.476 148.871 193.237 148.147C193.003 147.421 192.883 146.654 192.883 145.845C192.883 145.12 193.012 144.407 193.263 143.706C193.521 143.005 193.892 142.379 194.388 141.818C194.863 141.283 195.454 140.849 196.16 140.519C196.864 140.19 197.655 140.024 198.532 140.024C199.435 140.024 200.208 140.151 200.85 140.411C201.497 140.666 202.019 141.019 202.415 141.465C202.801 141.89 203.086 142.389 203.275 142.964C203.463 143.54 203.557 144.164 203.557 144.834V145.585H195.375C195.375 146.317 195.454 146.982 195.608 147.579C195.762 148.179 196.005 148.701 196.343 149.159C196.668 149.597 197.091 149.942 197.616 150.196C198.142 150.448 198.772 150.576 199.499 150.576C200.242 150.576 200.886 150.417 201.423 150.104C201.957 149.79 202.479 149.224 202.98 148.408L203.857 148.896ZM201.09 144.632C201.09 144.207 201.052 143.753 200.97 143.269C200.889 142.785 200.764 142.382 200.589 142.056C200.396 141.708 200.132 141.426 199.798 141.204C199.465 140.984 199.033 140.876 198.507 140.876C197.629 140.876 196.903 141.204 196.321 141.867C195.74 142.529 195.428 143.452 195.375 144.632H201.09Z" fill="#1F1917"/>
<path d="M219.435 151.324L215.124 151.574L214.936 151.415V150.37L214.839 150.349C214.402 150.791 213.868 151.147 213.225 151.429C212.588 151.709 211.93 151.848 211.255 151.848C210.552 151.848 209.873 151.704 209.218 151.421C208.564 151.139 207.992 150.739 207.509 150.224C207.016 149.702 206.622 149.075 206.337 148.343C206.049 147.607 205.905 146.798 205.905 145.915C205.905 145.106 206.058 144.34 206.367 143.611C206.678 142.887 207.102 142.253 207.645 141.705C208.153 141.198 208.778 140.795 209.518 140.49C210.258 140.188 211.01 140.038 211.781 140.038C212.358 140.038 212.922 140.104 213.478 140.235C214.034 140.37 214.513 140.536 214.91 140.742V136.851C214.91 136.532 214.854 136.241 214.735 135.983C214.62 135.719 214.458 135.521 214.248 135.386C214.013 135.243 213.701 135.139 213.302 135.072C212.905 135.01 212.477 134.965 212.02 134.933V134.229L217.066 133.969L217.254 134.139V149.226C217.254 149.493 217.309 149.718 217.426 149.904C217.536 150.086 217.703 150.244 217.92 150.372C218.078 150.466 218.306 150.519 218.61 150.542C218.909 150.563 219.184 150.581 219.435 150.589V151.326V151.324ZM214.91 149.359V142.816C214.847 142.618 214.735 142.408 214.586 142.181C214.436 141.952 214.248 141.747 214.021 141.557C213.781 141.367 213.495 141.208 213.169 141.085C212.845 140.961 212.464 140.899 212.032 140.899C211.527 140.899 211.066 141.015 210.647 141.251C210.223 141.482 209.851 141.821 209.526 142.259C209.214 142.684 208.97 143.222 208.791 143.876C208.612 144.531 208.521 145.254 208.521 146.049C208.521 146.684 208.59 147.261 208.723 147.78C208.854 148.299 209.082 148.78 209.397 149.224C209.694 149.651 210.065 149.99 210.522 150.247C210.976 150.502 211.515 150.634 212.144 150.634C212.81 150.634 213.367 150.499 213.803 150.235C214.243 149.972 214.612 149.678 214.91 149.359Z" fill="#1F1917"/>
</g>
<defs>
<clipPath id="clip0">
<rect width="219.435" height="151.848" fill="white"/>
</clipPath>
</defs>
</svg>
