<svg width="428" height="228" viewBox="0 0 428 228" fill="none" xmlns="http://www.w3.org/2000/svg">
<path d="M49.4614 227.008C49.4614 227.008 -9.03791 164.838 31.9812 106.844C47.2881 85.203 86.3654 73.0517 122.287 82.91C143.505 88.7324 175.684 87.8731 207.127 36.5474C250.005 -33.4479 428 -1.62035 393.256 121.016C378.621 172.674 433.169 175.025 406.149 227.119L49.4614 227.008Z" fill="#EBF3FA"/>
<path d="M366.167 102.465L238.744 209.066L171.7 151.952C159.152 163.002 139.772 180.058 120.277 197.172C106.954 208.869 96.1671 218.319 87.4237 225.969L26.531 225.898C43.4173 211.521 111.408 151.774 157.214 111.396L171.219 99.0503L238.991 156.786L338.466 73.5647L366.167 102.465Z" fill="#D5E5FB"/>
<path d="M322.335 60.4569L383.023 121.329L400.166 51.7896L322.335 60.4569Z" fill="#D5E5FB"/>
<path d="M123.391 188.719C123.164 183.145 122.675 178.295 122.091 174.915C121.159 169.525 120.319 166.424 120.31 166.392C120.187 165.918 118.413 164 114.469 164.058C110.526 164.118 110.899 166.633 110.899 166.633C110.899 166.717 110.911 166.796 110.927 166.856C110.964 166.986 114.586 180.113 114.429 197.061C114.427 197.298 114.4 197.71 114.417 197.983C114.417 197.985 123.557 198.219 123.559 197.983C123.878 196.502 123.722 192.398 123.391 188.719Z" fill="#B7D3F3"/>
<path d="M124.54 196.976C124.536 197.213 124.412 197.402 124.26 197.402H124.256C124.104 197.399 123.983 197.209 123.981 196.976H116.149C116.146 197.213 116.021 197.402 115.869 197.402H115.866C115.71 197.399 115.587 197.203 115.591 196.963C115.636 192.112 115.359 187.581 114.94 183.584C113.9 173.612 111.974 166.948 111.946 166.856C111.929 166.796 111.919 166.717 111.919 166.633C111.919 166.633 111.545 164.118 115.489 164.058C119.434 163.998 121.208 165.918 121.331 166.392C121.337 166.416 121.813 168.172 122.444 171.329C122.653 172.374 122.879 173.573 123.111 174.915C123.695 178.297 124.184 183.145 124.41 188.719C124.742 192.398 124.858 195.496 124.54 196.976Z" fill="#D2E3FC"/>
<path d="M115.011 197.402H145.719C145.719 197.402 145.004 194.509 127.221 194.939C114.636 195.245 115.011 197.402 115.011 197.402Z" fill="#C5DCF8"/>
<path d="M112.513 227.629C116.073 209.605 115.157 198.545 115.154 198.405C115.144 198.129 115.657 197.876 115.932 197.866C116.21 197.862 117.44 197.784 117.581 198.022C117.767 198.333 118.484 211.96 113.178 227.629H112.513Z" fill="#B7D3F3"/>
<path d="M141.183 227.629C137.623 209.605 138.539 198.545 138.542 198.405C138.552 198.129 138.041 197.876 137.764 197.866C137.485 197.862 136.256 197.784 136.115 198.022C135.929 198.333 135.212 211.96 140.518 227.629H141.183Z" fill="#B7D3F3"/>
<path d="M146.865 227.629C143.305 209.605 144.221 198.545 144.224 198.405C144.234 198.129 143.721 197.876 143.445 197.866C143.167 197.862 141.937 197.784 141.796 198.022C141.61 198.333 140.894 211.96 146.2 227.629H146.865Z" fill="#B7D3F3"/>
<path d="M118.233 227.629C121.793 209.605 120.878 198.545 120.874 198.405C120.865 198.129 121.378 197.876 121.653 197.866C121.931 197.862 123.161 197.784 123.302 198.022C123.488 198.333 124.205 211.96 118.898 227.629H118.233Z" fill="#B7D3F3"/>
<path d="M145.737 198.326H115.031C114.685 198.326 114.401 198.043 114.401 197.697V197.284C114.401 196.938 114.685 196.654 115.031 196.654H145.739C146.085 196.654 146.368 196.938 146.368 197.284V197.697C146.366 198.043 146.083 198.326 145.737 198.326Z" fill="#B7D3F3"/>
<path d="M144.659 170.594L154.867 168.384L155.467 169.848C155.467 169.848 144.204 176.549 143.149 176.223C142.094 175.894 144.659 170.594 144.659 170.594Z" fill="#FFB27D"/>
<path d="M135.379 216.759C135.123 217.052 135.09 217.379 135.217 217.729C135.217 217.73 135.218 217.732 135.22 217.734C135.455 218.381 136.226 219.103 137.125 219.823C137.239 219.915 137.341 219.999 137.43 220.078C137.453 220.099 137.477 220.119 137.498 220.14C137.516 220.156 137.534 220.172 137.552 220.187C138.388 220.959 138.074 221.135 139.578 222.702C141.293 224.486 142.474 224.519 142.809 224.355C143.094 224.216 142.517 223.27 141.876 222.206C141.845 222.155 141.814 222.103 141.782 222.051C141.696 221.91 141.612 221.766 141.528 221.624C140.779 220.344 140.971 219.743 141.148 217.837C141.292 216.288 143.557 209.186 143.557 209.186L140.27 208.62C140.27 208.62 139.28 214.275 138.189 215.146C137.607 215.61 136.953 215.617 136.393 215.96C136.354 215.984 136.315 216.009 136.277 216.034C135.959 216.246 135.636 216.465 135.379 216.759Z" fill="#FFB27D"/>
<path d="M135.379 216.759C135.123 217.052 135.09 217.379 135.217 217.729C135.217 217.73 135.218 217.732 135.22 217.734C135.506 218.379 136.26 219.098 137.128 219.816C137.241 219.91 137.341 219.997 137.43 220.078C137.453 220.099 137.477 220.119 137.498 220.14C137.516 220.156 137.534 220.172 137.552 220.187C138.388 220.959 138.074 221.135 139.578 222.702C141.293 224.486 142.474 224.519 142.809 224.355C143.094 224.216 142.517 223.27 141.876 222.206C141.542 222.083 139.99 221.454 138.819 219.954C137.786 218.637 137.097 216.942 136.393 215.962C136.354 215.986 136.315 216.01 136.277 216.036C135.959 216.246 135.636 216.465 135.379 216.759Z" fill="#1C468A"/>
<path d="M161.884 214.706C162.086 215.721 163.533 215.551 165.149 215.156C166.766 214.761 166.381 215.23 168.68 214.976C170.98 214.722 171.677 213.864 171.747 213.521C171.81 213.217 170.674 213.11 169.454 212.971C169.3 212.953 169.146 212.936 168.993 212.916C167.617 212.743 166.609 211.856 165.358 211.126C164.173 210.435 162.406 207.621 162.406 207.621L159.252 207.87C159.252 207.87 160.908 210.384 161.547 211.477C161.924 212.12 161.903 212.969 161.856 213.627C161.835 213.984 161.812 214.348 161.884 214.706Z" fill="#FFB27D"/>
<path d="M165.149 215.156C166.766 214.761 166.381 215.23 168.68 214.976C170.98 214.722 171.677 213.864 171.747 213.521C171.81 213.217 170.674 213.11 169.454 212.971L169.442 212.994C169.442 212.994 168.064 213.971 166.149 214.018C164.589 214.055 162.937 213.609 161.859 213.627C161.835 213.983 161.812 214.348 161.884 214.706C162.086 215.721 163.533 215.551 165.149 215.156Z" fill="#1C468A"/>
<path d="M154.865 168.384C154.865 168.384 155.616 166.542 156.443 166.468C157.27 166.393 159.9 165.979 160.087 166.354C160.275 166.73 160.087 168.083 159.524 168.571C158.961 169.06 155.467 169.848 155.467 169.848L154.865 168.384Z" fill="#FFB27D"/>
<path d="M149.797 194.539L143 212.832C143 212.832 141.957 212.932 140.955 212.644C140.034 212.379 138.978 211.681 138.978 211.681C138.978 211.681 140.664 194.117 143.755 190.465C146.847 186.811 149.797 194.539 149.797 194.539Z" fill="#163560"/>
<path d="M122.913 187.139C122.913 187.139 142.444 180.535 146.8 181.94C151.156 183.344 164.235 209.366 164.235 209.366C164.235 209.366 163.94 209.759 163.135 210.06C162.385 210.341 160.571 210.322 160.571 210.322C160.571 210.322 148.768 200.205 147.363 197.255C145.959 194.305 145.395 191.494 143.991 191.775C142.586 192.057 125.865 198.661 122.072 194.725C118.279 190.792 119.271 185.68 119.271 185.68L122.913 187.139Z" fill="#1C468A"/>
<path d="M134.048 140.571C133.204 140.092 132.192 140.039 131.485 140.081C131.668 139.893 132.026 139.823 132.026 139.823C131.587 139.759 130.608 140.194 130.608 140.194C124.504 137.843 123.544 146.83 123.672 148.918C123.8 151.005 123.815 153.409 120.767 155.282C114.772 158.967 119.83 165.4 119.83 165.4C119.877 165.427 122.62 170.078 122.62 170.078C122.467 168.39 130.252 159.487 134.314 156.82C135.302 155.363 135.654 152.792 135.68 152.59C135.51 154.629 135.16 155.773 134.848 156.417C138.288 153.252 136.285 141.843 134.048 140.571Z" fill="#B5453C"/>
<path d="M134.073 156.953C134.094 156.962 132.111 157.99 130.621 157.584C129.219 157.202 128.304 155.383 128.321 155.38C128.915 155.261 129.087 154.446 129.074 150.939L129.342 150.993L133.856 151.886C133.856 151.886 133.754 153.307 133.751 154.643C133.747 155.766 133.815 156.833 134.073 156.953Z" fill="#FFB27D"/>
<path d="M133.856 151.884C133.856 151.884 133.754 153.305 133.751 154.642C131.225 154.57 129.889 152.266 129.342 150.989L133.856 151.884Z" fill="#ED975D"/>
<path d="M128.876 150.501C128.876 150.501 127.553 148.41 127.236 146.622C127.009 145.345 127.659 140.613 132.414 141.294C132.414 141.294 133.794 141.43 135.094 142.307C136.126 143.005 137.617 144.51 135.95 148.64L135.518 150.035L128.876 150.501Z" fill="#B5453C"/>
<path d="M134.699 153.151C134.699 153.151 128.724 153.25 128.719 149.528C128.715 145.806 127.941 143.312 131.757 143.092C135.571 142.872 136.314 144.291 136.618 145.533C136.922 146.775 136.254 153.03 134.699 153.151Z" fill="#FFB27D"/>
<path d="M134.479 143.002C134.479 143.002 132.843 147.368 130.333 148.013C127.821 148.659 126.732 147.986 126.732 147.986C126.732 147.986 128.658 146.457 129.058 143.785C129.058 143.787 133.244 140.922 134.479 143.002Z" fill="#B5453C"/>
<path d="M134.073 143.356C134.073 143.356 135.294 144.33 135.592 145.279C135.89 146.227 136.024 148.177 136.592 148.11C136.592 148.11 137.825 145.143 136.44 143.463C134.972 141.683 134.073 143.356 134.073 143.356Z" fill="#B5453C"/>
<path d="M120.767 173.026C120.178 170.555 122.183 165.761 124.276 161.789C126.174 158.19 128.145 155.273 128.323 155.378C133.331 158.351 133.783 155.88 133.783 155.88C133.785 155.88 138.332 156.483 139.62 158.7C141.217 161.451 142.944 169.138 144.659 170.594C144.395 171.4 144.509 171.829 144.789 172.827C144.848 173.041 144.915 173.245 144.988 173.438C145.247 174.14 145.569 174.709 145.849 175.205C144.976 175.734 143.293 176.742 142.054 176.017C140.164 174.91 138.688 171.543 137.858 170.201C137.854 170.196 137.851 170.191 137.848 170.186C136.044 180.399 138.497 182.726 137.256 183.802C135.945 184.94 134.071 183.26 129.949 185.047C127.245 186.22 123.494 187.916 120.968 188.21C119.643 188.366 118.656 188.136 118.334 187.241C117.395 184.642 121.892 177.739 120.767 173.026Z" fill="#1C468A"/>
<path d="M133.372 150.895C133.372 150.895 133.484 151.368 134.66 151.295C134.66 151.295 135.647 151.234 135.618 150.714C135.616 150.714 134.658 150.345 133.372 150.895Z" fill="white"/>
<path d="M118.332 187.243C118.654 188.138 119.643 188.367 120.966 188.212C122.714 187.45 130.266 184.524 130.182 182.543C130.056 179.608 128.731 179.514 129.668 175.892C130.42 172.984 123.442 167.575 122.329 166.4C120.237 170.369 120.178 170.557 120.767 173.028C121.892 177.739 117.395 184.642 118.332 187.243Z" fill="#163560"/>
<path d="M117.478 176.656C118.817 174.776 120.212 173.781 121.13 173.281C120.918 172.737 126.763 165.571 126.763 164.461C126.763 163.336 128.323 155.376 128.323 155.376C128.323 155.376 123.454 155.677 121.767 158.029C119.657 160.971 115.278 172.287 117.478 176.656Z" fill="#1C468A"/>
<path d="M121.13 173.282L130.86 175.821L129.948 177.46C129.948 177.46 118.105 177.378 117.478 176.656C116.85 175.936 121.13 173.282 121.13 173.282Z" fill="#FFB27D"/>
<path d="M137.856 170.203C138.686 171.544 140.16 174.912 142.052 176.019C143.292 176.742 144.975 175.735 145.847 175.206C145.569 174.711 145.245 174.141 144.986 173.439C144.29 173.598 143.442 173.802 142.894 173.967C141.829 174.287 137.856 170.203 137.856 170.203Z" fill="#163560"/>
<path d="M130.86 175.821C130.86 175.821 133.916 174.957 134.644 175.159C135.372 175.362 137.866 177.012 137.515 177.462C137.163 177.91 134.968 177.193 133.956 177.329C132.945 177.465 132.163 177.964 131.435 177.855C130.707 177.747 129.946 177.462 129.946 177.462L130.86 175.821Z" fill="#FFB27D"/>
<path d="M130.86 175.821C130.86 175.821 132.356 175.053 132.781 174.616C132.835 174.561 132.925 174.572 132.967 174.637C133.081 174.816 133.187 175.164 132.663 175.509C131.909 176.006 130.86 175.821 130.86 175.821Z" fill="#FFB27D"/>
<path d="M144.983 180.121H130.726C130.726 179.493 131.234 178.985 131.862 178.985H144.983V180.121Z" fill="#C73172"/>
<path d="M144.942 164.592H166.984L161.698 180.121H139.512L144.942 164.592Z" fill="#C73172"/>
<path d="M167.31 164.594L162.021 180.119H139.837L145.266 164.594H167.31Z" fill="url(#paint0_linear)"/>
<path d="M155.425 172.213C155.288 172.806 154.697 173.287 154.103 173.287C153.509 173.287 153.14 172.806 153.276 172.213C153.414 171.619 154.004 171.138 154.598 171.138C155.192 171.138 155.563 171.62 155.425 172.213Z" fill="#F9DDBF"/>
<path d="M167.31 164.594L162.021 180.121H147.329C157.061 176.799 159.652 166.67 160.087 164.594H167.31Z" fill="url(#paint1_linear)"/>
<path d="M103.318 227.629C103.596 227.629 103.836 227.433 103.883 227.166L106.652 211.474L110.634 188.906L111.747 182.595L108.911 182.514L108.419 186.178L104.964 211.922L102.915 227.182C102.883 227.419 103.072 227.629 103.318 227.629Z" fill="#95C0F4"/>
<path d="M108.419 186.178C110.257 186.989 110.634 188.906 110.634 188.906L111.747 182.595L108.911 182.514L108.419 186.178Z" fill="#78ACEA"/>
<path d="M173.863 227.629C173.585 227.629 173.346 227.433 173.299 227.166L170.53 211.474L166.547 188.906L165.434 182.595L168.271 182.514L168.763 186.178L172.218 211.922L174.266 227.182C174.299 227.419 174.109 227.629 173.863 227.629Z" fill="#95C0F4"/>
<path d="M168.763 186.178C166.926 186.989 166.547 188.906 166.547 188.906L165.434 182.595L168.271 182.514L168.763 186.178Z" fill="#78ACEA"/>
<path d="M101.425 185.073H174.056C175.008 185.073 175.786 184.294 175.786 183.343V181.848C175.786 180.896 175.008 180.118 174.056 180.118H101.425C100.473 180.118 99.6948 180.896 99.6948 181.848V183.343C99.6948 184.294 100.473 185.073 101.425 185.073Z" fill="#78ACEA"/>
<path d="M427.515 227.479H0.485472C0.218462 227.479 0 227.26 0 226.993V226.828C0 226.561 0.218462 226.343 0.485472 226.343H427.515C427.782 226.343 428 226.561 428 226.828V226.993C428 227.262 427.782 227.479 427.515 227.479Z" fill="#2E3552"/>
<path d="M281.834 177.477C281.834 177.477 279.951 179.813 280.54 180.132C281.129 180.451 282.685 181.046 283.053 180.671C283.42 180.296 283.535 177.541 283.535 177.541L281.834 177.477Z" fill="#FFB27D"/>
<path d="M281.91 177.516C281.91 177.516 281.14 177.783 280.837 178.184C280.535 178.585 279.865 179.195 280.028 179.365C280.192 179.535 281.155 178.786 281.155 178.786L281.91 177.516Z" fill="#FFB27D"/>
<path d="M288.956 146.272C288.956 146.272 286.833 166.042 286.644 166.605C286.603 166.728 286.437 167.353 286.202 168.254C285.867 169.541 285.396 171.389 284.948 173.145C284.271 175.799 283.652 178.249 283.652 178.249L281.808 177.642C281.808 177.642 281.713 168.034 282.187 165.822C282.663 163.608 284.179 150.017 284.945 148.188C285.708 146.358 288.956 146.272 288.956 146.272Z" fill="#AEC3FF"/>
<path d="M284.54 193.68L272.958 190.643C271.452 190.248 270.541 188.691 270.935 187.183L272.251 182.163C272.646 180.655 274.203 179.745 275.711 180.14L287.293 183.178C288.799 183.573 289.71 185.129 289.314 186.638L287.998 191.657C287.605 193.166 286.048 194.075 284.54 193.68Z" fill="#494949"/>
<path d="M273.78 182.561L272.448 187.639C272.191 188.623 272.486 189.626 273.138 190.317C273.355 190.547 273.61 190.741 273.898 190.89C273.898 190.89 273.898 190.89 273.9 190.89C274.08 190.984 274.272 191.059 274.476 191.112L286.038 194.143C287.551 194.539 289.113 193.627 289.511 192.114L290.843 187.036C291.239 185.523 290.327 183.959 288.814 183.563L284.833 182.519L285.118 181.437C285.249 180.936 284.948 180.422 284.448 180.291L284.011 180.176L281.59 179.542L280.988 179.385C280.747 179.321 280.493 179.355 280.276 179.482C280.059 179.608 279.905 179.812 279.842 180.053L279.557 181.136L277.251 180.53C277.159 180.506 277.07 180.488 276.978 180.474C276.976 180.474 276.976 180.474 276.976 180.474C276.049 180.326 275.132 180.655 274.5 181.294C274.164 181.636 273.91 182.066 273.78 182.561ZM284.265 182.37L280.127 181.286L280.412 180.203C280.46 180.017 280.653 179.904 280.839 179.954L281.878 180.226L283.784 180.726L284.299 180.86C284.334 180.87 284.367 180.885 284.396 180.902C284.522 180.982 284.589 181.137 284.55 181.288L284.265 182.37Z" fill="black"/>
<path d="M282.935 180.723C282.935 180.723 283.449 179.857 283.257 179.555C283.064 179.252 282.37 180.453 282.37 180.453C282.37 180.453 282.844 179.422 282.668 179.252C282.491 179.082 281.765 180.267 281.765 180.267C281.765 180.267 282.216 179.265 282.058 179.231C281.899 179.197 281.36 180.072 281.36 180.072C281.36 180.072 281.64 179.323 281.384 179.359C281.129 179.394 280.575 180.079 280.575 180.079L282.935 180.723Z" fill="#FFB27D"/>
<path d="M286.202 168.253C285.867 169.539 285.396 171.387 284.948 173.143C284.658 172.331 284.292 171.038 284.059 169.266C283.632 165.994 284.945 159.024 284.945 159.024L286.202 168.253Z" fill="#9DB0F4"/>
<path d="M310.496 176.663C310.496 176.663 312.55 178.331 312.804 178.852C313.058 179.373 313.696 181.302 313.662 181.924C313.628 182.545 312.089 180.501 311.636 180.336C311.183 180.171 312.108 181.176 312.005 181.391C311.901 181.606 310.938 180.902 310.569 180.673C310.202 180.443 309.943 178.883 309.396 178.033C308.849 177.185 310.496 176.663 310.496 176.663Z" fill="#FFB27D"/>
<path d="M283.553 226.608H293.79C294.523 226.111 293.592 221.247 293.592 221.247C293.592 221.247 290.798 220.187 290.315 222.342C289.832 224.496 286.757 225.182 285.129 225.445C284.016 225.627 283.663 226.239 283.553 226.608Z" fill="#233862"/>
<path d="M298.735 226.608H308.972C309.705 226.111 308.775 221.247 308.775 221.247C308.775 221.247 305.98 220.187 305.498 222.342C305.014 224.496 301.939 225.182 300.311 225.445C299.198 225.627 298.847 226.239 298.735 226.608Z" fill="#233862"/>
<path d="M286.307 176.994C286.307 176.994 286.767 182.736 287.309 189.636C288.043 199.011 290.026 222.253 290.026 222.253C290.026 222.253 291.325 223.362 294.204 222.755C294.204 222.755 296.654 214.737 297.387 205.584C297.398 205.433 297.41 205.283 297.421 205.132C298.102 195.816 299.162 176.197 299.162 176.197L286.307 176.994Z" fill="#2B478B"/>
<path d="M286.15 175.01C286.15 175.01 286.767 182.736 287.309 189.636L297.389 205.585C297.4 205.435 297.411 205.284 297.423 205.134C298.104 195.818 299.164 176.198 299.164 176.198L286.15 175.01Z" fill="#233862"/>
<path d="M289.087 175.01C289.087 175.01 296.398 193.209 298.735 200.106C300.4 205.021 305.095 222.257 305.095 222.257C305.095 222.257 307.137 222.878 308.852 221.677C308.852 221.677 310.598 204.066 307.071 199.101C305.198 196.467 306.605 171.714 299.015 171.502C291.426 171.292 289.087 175.01 289.087 175.01Z" fill="#2B478B"/>
<path d="M303.019 176.663C299.97 178.383 286.911 178.344 286.305 176.994C284.954 173.98 284.616 158.663 285.254 153.964C285.254 153.964 285.584 146.743 286.305 147.062C291.129 144.845 298.937 146.858 298.937 146.858C301.043 147.478 300.861 152.289 301.449 159.045C301.525 159.916 301.607 160.823 301.701 161.76C302.117 165.932 302.721 170.725 303.64 175.781C303.703 176.114 303.472 176.409 303.019 176.663Z" fill="#AEC3FF"/>
<path d="M295.33 146.047C295.249 147.339 293.565 147.193 291.539 146.73C289.514 146.269 290.247 145.075 290.247 145.075C290.247 145.075 290.277 144.157 290.406 143.058C290.453 142.659 290.511 142.233 290.587 141.82C290.623 141.618 290.663 141.419 290.709 141.226C290.972 140.09 294.754 141.186 294.727 141.492C294.654 142.317 295.251 145.033 295.33 146.047Z" fill="#FFB27D"/>
<path d="M290.99 148.301L290.83 146.517L293.071 146.94L292.209 148.533L290.99 148.301Z" fill="#233862"/>
<path d="M290.296 144.235L288.956 146.272C288.956 146.272 288.956 147.525 290.118 148.434L291.95 146.728C291.951 146.728 290.767 146.277 290.296 144.235Z" fill="#9DB0F4"/>
<path d="M291.951 146.728C291.951 146.728 292.332 148.091 293.065 148.716C293.065 148.716 295.924 147.947 296.607 146.481L295.117 144.558C295.117 144.558 295.044 146.013 291.951 146.728Z" fill="#9DB0F4"/>
<path d="M294.749 142.134C294.749 142.134 292.929 143.345 290.406 143.058C290.453 142.659 290.511 142.233 290.587 141.82C291.086 141.699 291.502 141.625 291.502 141.625L294.749 142.134Z" fill="#E2915A"/>
<path d="M295.905 140.759C295.015 143.207 291.769 142.583 290.385 142.189C289.995 142.079 289.754 141.987 289.754 141.987C289.327 141.793 289.194 141.047 289.231 140.105C289.306 138.241 290.04 135.61 290.464 134.975C291.1 134.02 292.16 133.051 295.309 134.402C298.462 135.754 297.046 137.621 295.905 140.759Z" fill="#FFB27D"/>
<path d="M298.337 139.501C297.343 140.312 295.207 141.812 295.207 141.812C295.207 141.812 295.445 141.531 295.735 140.722C295.767 140.629 295.779 140.495 295.774 140.353C295.761 139.956 295.858 139.56 296.065 139.221C296.194 139.009 296.243 138.791 296.078 138.636C295.808 138.38 295.347 138.615 295.046 138.822C294.846 138.958 294.584 138.966 294.379 138.838C294.377 138.838 294.376 138.836 294.376 138.836C293.526 138.304 294.463 137.367 293.774 136.589C293.083 135.81 290.095 135.703 290.215 135.216C289.196 134.64 289.838 132.514 289.857 132.401C289.857 132.401 291.322 132.53 293.149 132.074C294.633 131.702 296.269 132.655 296.787 133.046C296.787 132.952 296.771 132.821 296.704 132.684C296.704 132.684 296.929 132.905 296.924 133.164C296.947 133.187 296.957 133.203 296.95 133.206C296.95 133.206 297.246 133.2 297.418 133.315C297.418 133.315 297.292 133.274 297.232 133.351C297.225 133.359 297.216 133.365 297.206 133.37C299.191 134.775 299.162 138.827 298.337 139.501Z" fill="#233862"/>
<path d="M291.209 140.404C291.209 140.404 291.048 140.713 290.246 140.458C290.246 140.458 289.571 140.243 289.683 139.888C289.683 139.887 290.411 139.798 291.209 140.404Z" fill="white"/>
<path d="M290.99 148.362C290.99 148.362 289.202 170.965 289.226 172.849C289.251 174.733 291.209 176.725 291.209 176.725C291.209 176.725 292.769 175.018 293.073 173.216C293.377 171.415 292.21 148.595 292.21 148.595L290.99 148.362Z" fill="#EBF3FA"/>
<path d="M298.939 146.86C298.939 146.86 301.826 147.551 304.109 151.936C306.393 156.321 308.195 165.165 309.284 167.5C310.375 169.835 311.121 177.187 311.121 177.187L309.396 178.033C309.396 178.033 305.229 170.499 304.614 168.028C304.281 166.691 299.187 155.99 299.187 155.99L298.939 146.86Z" fill="#AEC3FF"/>
<path d="M303.019 176.663C303.017 176.663 303.017 176.663 303.015 176.663C297.578 175.881 299.136 157.886 299.564 157.815C299.991 157.744 301.554 161.032 301.554 161.032L301.703 161.762C302.119 165.934 302.722 170.727 303.642 175.782C303.703 176.114 303.472 176.409 303.019 176.663Z" fill="#9DB0F4"/>
<path d="M370.855 216.032C370.855 216.032 373.119 218.098 372.677 219.566C372.235 221.034 370.193 222.013 369.917 223.807C369.64 225.602 368.536 226.58 367.543 226.58C366.549 226.58 362.804 226.58 362.804 226.58C362.804 226.58 362.073 225.317 363.84 224.937C365.607 224.557 366.274 222.448 366.162 220.492C366.052 218.535 366.327 215.925 366.327 215.925L370.082 215.054L370.855 216.032Z" fill="#233862"/>
<path d="M343.083 221.375C343.083 221.375 343.489 226.076 342.495 226.567L329.776 226.541C329.776 226.541 329.776 225.073 331.818 224.746C333.861 224.419 337.45 223.223 338.058 220.56C338.665 217.896 343.083 221.375 343.083 221.375Z" fill="#233862"/>
<path d="M332.344 154.961C332.344 154.961 333.016 163.203 333.804 173.11C334.875 186.567 336.165 203.097 336.291 206.229C336.511 211.666 337.396 220.364 337.396 220.364C337.396 220.364 339.494 222.43 343.691 221.56C343.691 221.56 347.431 209.143 348.499 196.005C348.515 195.789 348.533 195.572 348.549 195.356C349.543 181.981 351.088 153.819 351.088 153.819L332.344 154.961Z" fill="#2A4E96"/>
<path d="M332.344 154.961C332.344 154.961 333.016 163.203 333.804 173.11L348.499 196.006C348.515 195.791 348.533 195.574 348.549 195.357C349.543 181.982 351.088 153.82 351.088 153.82L332.344 154.961Z" fill="#233862"/>
<path d="M335.408 155.94C335.408 155.94 347.499 185.787 355.451 199.814C363.403 213.841 365.887 217.755 365.887 217.755C365.887 217.755 370.442 215.961 370.857 214.737C370.857 214.737 367.816 187.658 362.492 181.057C359.484 177.327 356.888 169.051 357.019 165.135C357.243 158.382 354.707 150.556 354.707 150.556L335.408 155.94Z" fill="#2A4E96"/>
<path d="M325.752 156.379C325.752 156.379 323.494 159.436 323.327 160.251C323.161 161.067 322.967 163.98 323.237 164.832C323.507 165.685 324.915 162.288 325.485 161.897C326.054 161.505 325.129 163.234 325.35 163.497C325.572 163.759 326.659 162.436 327.088 161.983C327.517 161.531 327.316 159.267 327.773 157.89C328.229 156.513 325.752 156.379 325.752 156.379Z" fill="#FFB27D"/>
<path d="M335.709 111.952C335.709 111.952 332.658 140.353 332.386 141.162C332.327 141.339 332.089 142.237 331.75 143.531C331.27 145.38 330.592 148.033 329.948 150.558C328.977 154.37 327.928 157.668 327.928 157.668C327.928 157.668 327.467 157.966 326.357 157.872C325.599 157.808 325.19 157.16 325.19 157.16C325.19 157.16 325.302 143.216 325.981 140.038C326.664 136.858 328.842 117.332 329.944 114.704C331.043 112.075 335.709 111.952 335.709 111.952Z" fill="white"/>
<path d="M331.75 143.531C331.27 145.38 330.592 148.033 329.948 150.558C329.533 149.391 329.006 147.533 328.672 144.988C328.059 140.289 329.944 130.275 329.944 130.275L331.75 143.531Z" fill="#DCEAFF"/>
<path d="M355.911 155.613C351.532 158.084 332.77 158.029 331.901 156.089C329.959 151.759 329.474 129.754 330.389 123.004C330.389 123.004 330.864 112.631 331.901 113.089C338.83 109.906 350.048 112.796 350.048 112.796C353.072 113.688 352.812 120.598 353.656 130.304C353.765 131.555 353.885 132.859 354.021 134.206C354.618 140.199 355.485 147.084 356.806 154.346C356.895 154.824 356.561 155.248 355.911 155.613Z" fill="white"/>
<path d="M344.866 111.63C344.75 113.486 342.33 113.275 339.421 112.61C336.513 111.948 337.565 110.231 337.565 110.231C337.565 110.231 337.607 108.913 337.791 107.333C337.859 106.759 337.942 106.149 338.053 105.555C338.105 105.265 338.162 104.979 338.227 104.702C338.607 103.069 344.039 104.645 344 105.084C343.894 106.272 344.751 110.171 344.866 111.63Z" fill="#FFB27D"/>
<path d="M338.629 114.868L338.4 112.304L341.62 112.911L340.38 115.201L338.629 114.868Z" fill="#233862"/>
<path d="M337.633 109.024L335.709 111.952C335.709 111.952 335.709 113.753 337.379 115.059L340.01 112.609C340.01 112.609 338.309 111.96 337.633 109.024Z" fill="#DCEAFF"/>
<path d="M340.01 112.609C340.01 112.609 340.555 114.565 341.609 115.463C341.609 115.463 345.717 114.358 346.696 112.254L344.557 109.492C344.557 109.49 344.454 111.581 340.01 112.609Z" fill="#DCEAFF"/>
<path d="M344.03 106.008C344.03 106.008 341.415 107.747 337.791 107.335C337.859 106.76 337.942 106.15 338.053 105.556C338.769 105.383 339.367 105.275 339.367 105.275L344.03 106.008Z" fill="#E2915A"/>
<path d="M345.69 104.032C344.412 107.55 339.746 106.652 337.761 106.087C337.201 105.928 336.854 105.797 336.854 105.797C336.241 105.519 336.05 104.448 336.103 103.095C336.209 100.417 337.267 96.6365 337.874 95.7254C338.787 94.3548 340.309 92.9615 344.835 94.9018C349.362 96.8404 347.329 99.5234 345.69 104.032Z" fill="#FFB27D"/>
<path d="M349.185 102.224C347.756 103.389 344.688 105.545 344.688 105.545C344.688 105.545 345.03 105.142 345.447 103.978C345.494 103.846 345.51 103.653 345.504 103.448C345.486 102.878 345.624 102.308 345.923 101.823C346.111 101.519 346.177 101.205 345.941 100.981C345.552 100.614 344.891 100.951 344.457 101.248C344.17 101.444 343.795 101.456 343.5 101.273C343.499 101.271 343.497 101.271 343.496 101.27C342.275 100.506 343.622 99.1593 342.631 98.0411C341.638 96.9229 337.346 96.7708 337.518 96.0685C336.052 95.2416 336.976 92.1863 337.003 92.0245C337.003 92.0245 339.105 92.2106 341.732 91.5552C343.863 91.0196 346.213 92.3886 346.957 92.9534C346.957 92.8191 346.934 92.6297 346.839 92.4323C346.839 92.4323 347.161 92.7511 347.156 93.1233C347.188 93.1557 347.203 93.1783 347.193 93.1848C347.193 93.1848 347.619 93.1767 347.866 93.3401C347.866 93.3401 347.685 93.2835 347.599 93.3919C347.59 93.4049 347.577 93.413 347.562 93.421C350.412 95.4341 350.37 101.257 349.185 102.224Z" fill="black"/>
<path d="M338.943 103.524C338.943 103.524 338.714 103.967 337.561 103.6C337.561 103.6 336.592 103.291 336.754 102.781C336.752 102.779 337.798 102.652 338.943 103.524Z" fill="white"/>
<path d="M338.63 114.868C338.63 114.868 336.06 147.341 336.095 150.046C336.131 152.752 338.942 155.613 338.942 155.613C338.942 155.613 341.182 153.162 341.62 150.572C342.057 147.983 340.38 115.201 340.38 115.201L338.63 114.868Z" fill="#2A4E96"/>
<path d="M355.911 155.613C355.909 155.613 355.909 155.613 355.906 155.613C348.095 154.489 350.333 128.639 350.946 128.537C351.559 128.435 353.805 133.157 353.805 133.157L354.021 134.206C354.618 140.2 355.485 147.084 356.806 154.346C356.895 154.824 356.561 155.248 355.911 155.613Z" fill="#DCEAFF"/>
<path d="M378.872 174.87L362.354 179.676C360.205 180.303 357.933 179.055 357.309 176.906L355.226 169.749C354.6 167.6 355.848 165.328 357.997 164.703L374.514 159.897C376.663 159.27 378.935 160.518 379.56 162.667L381.642 169.825C382.269 171.974 381.023 174.244 378.872 174.87Z" fill="#494949"/>
<path d="M357.403 169.109L359.51 176.349C359.917 177.751 361.023 178.77 362.337 179.141C362.772 179.264 363.232 179.316 363.698 179.285C363.699 179.285 363.699 179.285 363.699 179.285H363.701C363.991 179.267 364.283 179.217 364.575 179.133L381.061 174.335C383.218 173.707 384.471 171.428 383.843 169.271L381.736 162.03C381.107 159.872 378.828 158.62 376.671 159.248L370.994 160.9L370.544 159.355C370.337 158.641 369.586 158.23 368.873 158.437L368.25 158.618L364.796 159.623L363.939 159.872C363.594 159.973 363.308 160.203 363.134 160.518C362.961 160.835 362.921 161.199 363.021 161.544L363.471 163.09L360.183 164.046C360.052 164.083 359.927 164.128 359.804 164.177C359.804 164.179 359.802 164.179 359.801 164.179H359.799C358.548 164.682 357.658 165.763 357.354 167.017V167.019C357.192 167.685 357.197 168.402 357.403 169.109ZM370.183 161.133L364.283 162.85L363.834 161.305C363.756 161.039 363.91 160.759 364.177 160.682L365.659 160.251L368.376 159.46L369.109 159.246C369.159 159.232 369.209 159.225 369.259 159.227C369.473 159.23 369.67 159.372 369.734 159.589L370.183 161.133Z" fill="black"/>
<path d="M365.235 156.511C365.235 156.511 364.722 160.795 365.683 160.733C366.645 160.672 368.993 160.211 369.154 159.474C369.315 158.736 367.355 155.296 367.355 155.296L365.235 156.511Z" fill="#FFB27D"/>
<path d="M365.358 156.5C365.358 156.5 364.623 157.413 364.56 158.131C364.497 158.85 364.146 160.106 364.476 160.186C364.805 160.267 365.407 158.623 365.407 158.623L365.358 156.5Z" fill="#FFB27D"/>
<path d="M350.049 112.796C350.049 112.796 354.199 113.79 357.477 120.09C360.757 126.389 363.347 139.096 364.913 142.45C366.479 145.803 367.67 155.867 367.67 155.867C367.67 155.867 367.426 156.367 366.583 156.55C365.928 156.693 365.256 156.636 365.256 156.636C365.256 156.636 359.089 146.757 358.204 143.208C357.725 141.287 350.407 125.914 350.407 125.914L350.049 112.796Z" fill="white"/>
<path d="M76.8454 222.42L76.224 217.942L78.8342 215.761L79.6579 221.689L76.8454 222.42Z" fill="#FFB27D"/>
<path d="M85.5159 226.419H74.8711C74.8711 226.419 74.6154 224.797 75.1721 223.566C75.7045 222.384 76.5347 221.656 76.6091 220.752C77.2855 221.447 78.1173 221.896 79.6562 221.689C79.8456 221.994 80.8732 223.63 81.5027 224.082C82.2001 224.582 85.3023 224.404 85.5159 226.419Z" fill="#233862"/>
<path d="M83.3766 161.969C82.6808 167.568 82.1111 172.849 81.6483 177.768C79.1708 203.985 79.6579 220.009 79.6579 220.009C79.6579 220.009 79.4783 220.483 77.9425 220.489C77.0752 220.494 76.224 220.305 76.224 220.305C76.224 220.305 70.6783 203.186 71.1055 193.444C71.1573 192.272 71.2948 191.207 71.5376 190.29C72.8677 185.306 66.6133 166.244 73.4131 159.145C80.2113 152.048 83.697 159.399 83.3766 161.969Z" fill="url(#paint2_linear)"/>
<path d="M83.3766 161.969C82.6808 167.568 82.1111 172.849 81.6483 177.768L71.1055 193.444C71.1573 192.272 71.2948 191.207 71.5376 190.29C72.8677 185.306 66.6133 166.244 73.4131 159.145C80.2113 152.048 83.697 159.399 83.3766 161.969Z" fill="url(#paint3_linear)"/>
<path d="M91.7542 108.556C91.7542 108.556 91.4969 107.276 91.2089 106.3C91.0811 105.868 91.9727 103.031 92.5893 102.682C93.2058 102.332 94.8127 104.243 94.358 105.711C94.125 106.465 93.7414 108.917 93.7414 108.917L91.7542 108.556Z" fill="#FFB27D"/>
<path d="M91.7542 108.556C91.7542 108.556 91.4192 107.815 91.1166 107.693C90.814 107.574 90.4888 106.36 90.2671 105.879C90.2671 105.879 90.4823 105.565 90.8577 105.97C91.0875 106.218 91.5973 106.941 91.5973 106.941L91.7542 108.556Z" fill="#FFB27D"/>
<path d="M47.8125 112.859C47.7478 112.993 47.6572 113.234 47.5763 113.461C47.5747 113.399 47.5747 113.338 47.573 113.278C47.5682 112.828 45.8868 110.375 45.1942 110.221C44.5016 110.067 43.5258 112.365 44.39 113.636C44.8334 114.288 45.9176 116.521 45.9176 116.521L47.7106 115.595C47.7106 115.595 47.8142 114.788 48.0682 114.584C48.3223 114.38 48.277 113.126 48.3498 112.6C48.3514 112.6 48.0537 112.362 47.8125 112.859Z" fill="#FFB27D"/>
<path d="M58.9946 221.077C58.8441 219.642 58.8069 215.866 58.8069 215.866C58.8069 215.866 62.6534 214.636 62.5126 215.481C61.8168 219.632 62.0061 221.687 62.0061 221.687L60.451 222.616L58.9946 221.077Z" fill="#FFB27D"/>
<path d="M80.1644 161.485C80.1644 161.485 65.3041 202.221 62.3783 219.89C62.3783 219.89 61.7003 220.356 60.4365 220.201C59.0027 220.026 58.6095 219.029 58.6095 219.029C58.6095 219.029 55.9248 197.852 61.2601 190.498C64.9254 185.448 59.6791 163.262 68.2169 161.483C76.7564 159.706 80.1644 161.485 80.1644 161.485Z" fill="url(#paint4_linear)"/>
<path d="M77.5251 122.516C77.5251 122.515 77.5251 122.515 77.5251 122.516C77.5218 122.497 77.5186 122.479 77.5121 122.463C77.4247 122.104 77.3309 121.751 77.2289 121.401C77.2289 121.4 77.2289 121.4 77.2289 121.4C76.9182 120.329 76.5476 119.309 76.1479 118.408C75.9181 117.891 75.6803 117.413 75.4359 116.987C75.3987 116.921 75.3631 116.859 75.3275 116.798L75.3259 116.796C74.7514 115.831 74.1607 115.163 73.6283 114.958C72.6574 114.582 71.5764 114.687 70.832 114.841C70.9955 114.613 71.366 114.483 71.366 114.483C70.8903 114.483 69.9193 115.098 69.9193 115.098C63.0742 113.568 63.4755 123.249 63.9416 125.444C64.406 127.638 62.2019 128.705 59.0949 130.951C53.1641 135.236 53.2628 139.777 53.2628 139.777C53.3162 139.799 53.3745 139.825 53.436 139.856C53.6738 139.268 54.1803 138.157 54.7111 137.92C54.6966 137.972 54.2645 139.414 54.1415 140.22C55.0445 140.718 56.2954 141.489 57.6531 142.359C57.6531 142.359 57.6531 142.359 57.6547 142.361C59.472 143.523 61.4754 144.861 63.0823 145.947C63.0062 145.505 62.9302 144.874 63.0418 144.518L63.5532 146.104L63.6195 146.311C64.6455 147.005 65.4546 147.562 65.864 147.847C65.9061 147.876 65.9433 147.902 65.9773 147.924C66.0971 148.007 66.1618 148.052 66.1618 148.052C66.0259 147.492 66.623 146.031 67.6279 144.19C67.6975 144.062 67.7703 143.931 67.8448 143.798C68.1684 143.215 68.5309 142.602 68.9209 141.969C69.0617 141.741 69.2025 141.511 69.3497 141.28C69.3497 141.278 69.3513 141.278 69.3513 141.278C69.4695 141.091 69.5892 140.904 69.7122 140.715L69.7138 140.714C70.0051 140.264 70.3061 139.811 70.6136 139.357C71.4097 138.183 72.2512 137.016 73.0846 135.946C74.2934 134.388 75.4796 133.033 76.4732 132.148C76.5056 132.082 76.5363 132.012 76.5638 131.944C76.7192 131.583 76.8389 131.182 76.9312 130.774C76.9603 130.651 76.9862 130.528 77.0088 130.405C77.2564 129.103 77.2613 127.81 77.2581 127.502C77.3373 128.761 77.3066 129.711 77.2224 130.428C77.203 130.585 77.182 130.731 77.1593 130.867V130.868C77.1059 131.174 77.0461 131.428 76.9797 131.638C77.1415 131.436 77.2856 131.216 77.4118 130.973C77.4943 130.816 77.5704 130.65 77.6367 130.477C78.4345 128.428 78.2193 125.377 77.5251 122.516Z" fill="#163560"/>
<path d="M76.2385 132.326C76.2612 132.333 74.3225 133.736 72.6768 133.54C71.1297 133.355 69.8708 131.572 69.8918 131.566C70.5035 131.347 70.5553 130.454 69.9889 126.738L70.2818 126.751L75.2093 126.988C75.2093 126.988 75.3242 128.51 75.533 129.93C75.7078 131.119 75.9472 132.239 76.2385 132.326Z" fill="#FFB27D"/>
<path d="M75.2094 126.986C75.2094 126.986 75.3243 128.509 75.533 129.928C72.8435 130.252 71.0651 128.018 70.2834 126.75L75.2094 126.986Z" fill="#ED975D"/>
<path d="M69.7106 126.303C69.7106 126.303 67.9774 124.295 67.3576 122.448C66.9159 121.131 66.8592 116.009 72.0085 115.982C72.0085 115.982 73.494 115.908 75.0103 116.634C76.2159 117.21 78.0332 118.573 76.9182 123.214L76.6787 124.761L69.7106 126.303Z" fill="#163560"/>
<path d="M83.998 160.92C83.998 160.92 77.5865 164.731 69.5358 162.772C69.4403 162.749 62.9075 161.705 62.9075 161.705C63.0191 161.398 63.8639 156.351 63.9739 156.069C65.4028 152.384 68.0114 132.381 70.1928 131.394C70.7495 132.001 72.3418 132.415 73.7027 132.295C75.2708 132.156 75.7968 131.48 75.6657 130.75C77.402 131.57 78.7355 132.334 78.7355 132.334C80.323 134.71 83.998 160.92 83.998 160.92Z" fill="white"/>
<path d="M76.3049 128.196C76.3049 128.196 69.984 129.243 69.3918 125.297C68.8011 121.35 67.5858 118.827 71.5974 117.992C75.609 117.157 76.6204 118.545 77.1383 119.814C77.6545 121.084 77.9328 127.823 76.3049 128.196Z" fill="#FFB27D"/>
<path d="M74.4682 117.466C74.4682 117.466 73.4228 122.355 70.8611 123.436C68.301 124.517 67.0388 123.974 67.0388 123.974C67.0388 123.974 68.8399 122.049 68.8432 119.154C68.8432 119.154 72.8321 115.458 74.4682 117.466Z" fill="#163560"/>
<path d="M74.0944 117.906C74.0944 117.906 75.5444 118.748 76.0088 119.706C76.4749 120.664 76.9247 122.712 77.517 122.552C77.517 122.552 78.3552 119.21 76.6221 117.649C74.7838 115.992 74.0944 117.906 74.0944 117.906Z" fill="#163560"/>
<path d="M93.7835 108.646C93.5262 108.556 93.1475 108.342 92.6539 108.297C92.2138 108.258 91.6603 108.4 91.6603 108.4C91.6603 108.4 89.877 119.487 89.7443 120.074C89.6116 120.662 82.0949 129.13 80.0689 129.096C78.2386 129.065 76.0702 130.478 75.6689 130.75C75.6689 130.75 79.9313 139.762 80.1433 141.455C80.3747 143.296 82.5804 171.664 82.5804 171.664C82.5804 171.664 82.4493 172.984 84.9155 172.274C87.3817 171.565 87.9983 170.978 87.9983 170.978C87.9983 170.978 85.7327 148.646 85.2586 141.701C85.1955 140.769 85.0433 139.906 84.8265 139.11C84.6177 138.343 84.7828 137.521 85.2505 136.878C88.3672 132.6 93.2899 125.665 93.565 124.193C93.9647 122.026 93.7835 108.646 93.7835 108.646Z" fill="#2B478B"/>
<path d="M67.8625 226.419H57.2177C57.2177 226.419 56.962 224.797 57.5187 223.566C58.0511 222.384 58.8813 221.656 58.9557 220.752C59.6321 221.447 60.4639 221.896 62.0029 221.689C62.1922 221.994 63.2198 223.63 63.8493 224.082C64.5467 224.582 67.6489 224.404 67.8625 226.419Z" fill="#233862"/>
<path d="M75.1753 142.33C74.8161 140.123 70.2365 131.258 70.2365 131.258C70.2365 131.258 67.3414 130.392 65.4352 131.083C63.5289 131.774 53.6689 126.206 53.3534 125.695C53.0378 125.182 47.7559 115.341 47.7559 115.341C47.7559 115.341 47.3173 115.087 46.6167 115.453C45.9224 115.815 45.9192 116.521 45.9192 116.521C45.9192 116.521 49.9955 128.912 51.0798 130.828C51.7335 131.983 57.2307 136.008 61.4931 139.021C62.3071 139.597 62.7343 140.576 62.6 141.563C62.0271 145.8 61.8815 148.187 61.2213 155.456C60.6743 161.487 60.4655 173.162 60.4655 173.162C60.4655 173.162 65.2345 174.813 68.5276 175.032C71.8191 175.25 72.536 171.78 72.536 171.78C72.536 171.78 75.5443 144.601 75.1753 142.33Z" fill="#2B478B"/>
<path d="M74.2336 126.245C74.2336 126.245 75.0022 126.696 75.9085 126.56C76.5299 126.467 76.6706 125.73 76.6706 125.73C76.6706 125.73 76.2386 125.594 75.5492 125.732C74.8598 125.871 74.2336 126.245 74.2336 126.245Z" fill="white"/>
<path d="M276.133 51.0129C276.133 51.0129 273.175 45.7568 276.133 44.6872C279.091 43.6175 280.43 44.6046 280.57 45.8005C280.711 46.998 279.444 51.7168 279.444 51.7168L276.133 51.0129Z" fill="#FFB27D"/>
<path d="M278.504 84.6302C273.11 85.6027 268.152 86.0526 263.677 86.1529C259.43 86.2484 255.617 86.0283 252.28 85.64C251.384 85.5364 250.524 85.4215 249.697 85.2969C240.965 83.9732 236.145 81.6251 236.145 81.6251C236.145 81.6251 244.123 64.9249 250.566 65.5657C258.127 66.3198 270.94 73.1035 272.214 71.202C273.647 69.0579 274.848 50.673 274.848 50.673C278.201 48.3768 280.201 50.7977 280.201 50.7977C280.201 50.7977 286.75 83.143 278.504 84.6302Z" fill="url(#paint5_linear)"/>
<path d="M278.504 84.6302C273.11 85.6028 268.152 86.0526 263.677 86.1529C259.43 86.2484 255.617 86.0283 252.28 85.64C250.269 79.2431 248.822 72.7086 252.868 76.6474C260.006 83.5961 278.504 84.6302 278.504 84.6302Z" fill="url(#paint6_linear)"/>
<path d="M235.54 219.465C235.54 219.465 234.965 226.103 236.37 226.794L254.329 226.757C254.329 226.757 254.329 224.684 251.444 224.224C248.558 223.763 243.492 222.075 242.634 218.313C241.776 214.552 235.54 219.465 235.54 219.465Z" fill="#233862"/>
<path d="M248.725 139.116C248.636 143.458 248.427 147.936 248.019 151.959C246.079 171.054 245.398 194.127 245.12 198.574C244.636 206.296 243.111 218.632 243.111 218.632C243.111 218.632 240.085 221.504 234.188 220.133C234.188 220.133 229.301 202.367 228.211 183.658C228.194 183.351 228.177 183.043 228.162 182.734C228.036 180.26 227.903 177.433 227.767 174.383C226.869 153.956 225.893 123.612 225.893 123.612L248.43 118.32C248.427 118.32 248.947 128.294 248.725 139.116Z" fill="#2A4E96"/>
<path d="M248.725 139.116C243.014 148.97 232.127 167.125 227.766 174.383C226.867 153.956 225.892 123.612 225.892 123.612L248.429 118.32C248.427 118.32 248.947 128.294 248.725 139.116Z" fill="#233862"/>
<path d="M191.661 120.028C191.661 120.028 187.994 124.34 187.664 125.536C187.334 126.732 186.746 131.04 187.062 132.334C187.376 133.629 189.815 128.724 190.701 128.201C191.588 127.677 190.036 130.151 190.339 130.566C190.642 130.978 192.392 129.12 193.075 128.493C193.758 127.865 193.69 124.481 194.511 122.481C195.331 120.481 191.661 120.028 191.661 120.028Z" fill="#FFB27D"/>
<path d="M190.802 211.921C190.802 211.921 187.606 214.839 188.229 216.91C188.852 218.983 191.737 220.365 192.127 222.897C192.517 225.43 194.075 226.812 195.48 226.812C196.883 226.812 202.17 226.812 202.17 226.812C202.17 226.812 203.202 225.029 200.709 224.491C198.213 223.954 197.273 220.977 197.428 218.214C197.584 215.45 197.194 211.766 197.194 211.766L191.892 210.537L190.802 211.921Z" fill="#233862"/>
<path d="M244.877 124.075C244.877 124.075 223.78 169.214 212.552 189.02C201.325 208.825 197.817 214.353 197.817 214.353C197.817 214.353 191.384 211.819 190.8 210.092C190.8 210.092 195.093 171.857 202.612 162.535C206.859 157.268 211.85 141.463 212.085 135.936C212.319 130.409 217.247 117.217 217.247 117.217L244.877 124.075Z" fill="#2A4E96"/>
<path d="M251.044 126.203C251.044 126.203 242.655 131.812 230.78 131.291C225.57 131.062 215.232 129.585 213.564 125.441C213.172 124.468 213.459 123.233 214.048 121.337C215.572 116.411 219.127 107.03 218.055 86.2306C217.954 84.2952 218.009 82.4763 218.194 80.7723C219.312 70.5272 225.183 64.4604 230.858 62.4781C244.697 57.6412 249.311 64.3423 249.311 64.3423C249.311 64.3423 255.428 69.1889 256.35 79.3029C258.193 99.5374 251.044 126.203 251.044 126.203Z" fill="url(#paint7_linear)"/>
<path d="M234.913 61.3194C234.913 61.3194 241.263 65.1822 248.15 64.0899C248.15 64.0899 249.511 63.7436 248.843 62.1448C249.262 60.855 249.212 60.9715 249.455 60.0119C250.058 57.8063 250.243 56.5327 250.243 56.5327L246.335 52.424L242.632 48.4981C241.61 57.8807 234.913 61.3194 234.913 61.3194Z" fill="#FFB27D"/>
<path d="M242.04 52.0566C242.04 52.0566 244.166 57.7415 249.455 60.0119C250.058 57.8063 250.452 55.497 250.452 55.497L246.335 52.424L242.04 52.0566Z" fill="#ED985F"/>
<path d="M254.628 56.3337C254.628 56.3337 242.508 57.8483 241.656 50.3996C240.805 42.9508 238.668 38.1301 246.372 36.8484C254.075 35.5668 255.907 38.2434 256.805 40.6626C257.701 43.0803 257.76 55.7479 254.628 56.3337Z" fill="#FFB27D"/>
<path d="M237.829 35.638C237.724 35.5085 237.477 35.3985 236.917 35.3467C236.917 35.3467 237.376 35.0829 237.977 35.091C238.124 34.3143 238.592 32.9485 239.948 32.6637C239.948 32.6637 239.211 33.0213 239.085 33.8482C240.702 32.3093 244.079 31.272 253.285 32.3497C265.416 33.7705 261.111 41.4086 259.501 42.2776C257.891 43.1466 254.021 40.4506 251.078 40.572C248.134 40.6934 247.416 44.9137 246.398 45.4575C245.38 46.0012 245.811 44.9882 244.487 44.3279C243.163 43.6677 242.949 45.896 243.284 47.3621C243.619 48.8282 241.695 50.673 241.695 50.673C241.695 50.673 241.695 50.673 239.901 48.5871C238.106 46.5012 236.666 37.9035 237.585 36.117C237.666 35.9584 237.747 35.7982 237.829 35.638Z" fill="#2C3A64"/>
<path d="M274.848 47.5255L254.271 47.71L254.13 44.6143L274.643 43.0236L274.848 47.5255Z" fill="#2A4E96"/>
<path d="M290.382 48.0434L267.977 48.367L267.721 42.7388L290.061 41.0073L290.382 48.0434Z" fill="#2A4E96"/>
<path d="M305.488 48.4852L286.595 48.5078L286.25 40.9102L305.066 39.1981L305.488 48.4852Z" fill="#233862"/>
<path d="M305.758 49.7668C306.341 49.7409 306.792 49.2457 306.766 48.6632L306.323 38.902C306.297 38.3194 305.802 37.8679 305.219 37.8954C304.637 37.9213 304.185 38.4165 304.213 38.999L304.656 48.7603C304.68 49.3428 305.176 49.7943 305.758 49.7668Z" fill="#233862"/>
<path d="M254.206 48.3703C253.688 48.3946 253.248 47.9932 253.225 47.4754L253.11 44.9429C253.086 44.425 253.487 43.9865 254.005 43.9622C254.523 43.9379 254.963 44.3393 254.986 44.8571L255.101 47.3896C255.125 47.9075 254.724 48.346 254.206 48.3703Z" fill="#2A4E96"/>
<path d="M214.048 121.338C215.572 116.412 219.127 107.031 218.054 86.2323C217.954 84.2968 218.009 82.4779 218.194 80.7739H218.195C222.749 80.3823 229.712 85.3066 229.712 85.3066C229.712 85.3066 225.424 111.448 214.048 121.338Z" fill="url(#paint8_linear)"/>
<path d="M234.913 61.3194C234.913 61.3194 223.234 63.3277 217.143 70.7635C211.052 78.1993 201.254 88.6839 198.938 92.3557C196.621 96.0274 190.19 121.015 190.19 121.015C190.19 121.015 190.614 121.817 192.388 122.285C194.085 122.732 195.317 122.039 195.317 122.039C195.317 122.039 203.837 107.457 207.044 100.173C208.376 97.1473 231.418 85.161 240.08 86.4022C243.483 86.8876 234.913 61.3194 234.913 61.3194Z" fill="url(#paint9_linear)"/>
<path d="M274.725 42.1368C274.725 42.1368 277.237 43.6725 278.74 43.0236C280.243 42.3731 280.111 41.7792 280.111 41.7792C280.111 41.7792 275.57 40.5186 274.725 42.1368Z" fill="#FFB27D"/>
<path d="M246.246 69.464C246.246 69.464 241.121 101.821 204.757 111.242L200.796 119.057L207.754 120.235C207.754 120.235 249.152 108.242 248.596 68.8912L246.246 69.464Z" fill="#2A4E96"/>
<path d="M245.451 64.3002L243.773 64.4637V66.8943L246.246 69.464L248.597 68.8928V65.5204L246.906 64.3002H245.451Z" fill="#A02E2E"/>
<path d="M238.865 57.8661C238.865 57.8661 237.24 58.2335 233.526 61.3194C233.526 61.3194 237.221 69.1614 245.014 70.1C245.014 70.1 244.888 66.4606 245.451 64.3019C245.451 64.3002 239.274 62.0881 238.865 57.8661Z" fill="#C73172"/>
<path d="M245.451 64.3002C245.451 64.3002 249.254 66.3198 249.536 69.4657C249.536 69.4657 250.989 67.1629 250.568 65.5673C250.146 63.9717 248.843 62.1447 248.843 62.1447C248.843 62.1447 248.973 64.0656 245.451 64.3002Z" fill="#C73172"/>
<defs>
<linearGradient id="paint0_linear" x1="153.573" y1="164.594" x2="153.573" y2="180.119" gradientUnits="userSpaceOnUse">
<stop stop-color="#FF90A8"/>
<stop offset="0.864583" stop-color="#5900FF"/>
</linearGradient>
<linearGradient id="paint1_linear" x1="157.319" y1="164.594" x2="157.319" y2="180.121" gradientUnits="userSpaceOnUse">
<stop stop-color="#FF90A8"/>
<stop offset="0.864583" stop-color="#5900FF"/>
</linearGradient>
<linearGradient id="paint2_linear" x1="76.789" y1="156.137" x2="76.789" y2="220.49" gradientUnits="userSpaceOnUse">
<stop stop-color="#FF90A8"/>
<stop offset="0.864583" stop-color="#5900FF"/>
</linearGradient>
<linearGradient id="paint3_linear" x1="76.789" y1="156.137" x2="76.789" y2="193.444" gradientUnits="userSpaceOnUse">
<stop stop-color="#FF90A8"/>
<stop offset="0.864583" stop-color="#5900FF"/>
</linearGradient>
<linearGradient id="paint4_linear" x1="69.0492" y1="160.694" x2="69.0492" y2="220.233" gradientUnits="userSpaceOnUse">
<stop stop-color="#FF90A8"/>
<stop offset="0.864583" stop-color="#5900FF"/>
</linearGradient>
<linearGradient id="paint5_linear" x1="259.406" y1="49.6838" x2="259.406" y2="86.1751" gradientUnits="userSpaceOnUse">
<stop stop-color="#FF90A8"/>
<stop offset="0.864583" stop-color="#5900FF"/>
</linearGradient>
<linearGradient id="paint6_linear" x1="264.398" y1="75.4533" x2="264.398" y2="86.1752" gradientUnits="userSpaceOnUse">
<stop stop-color="#FF90A8"/>
<stop offset="0.864583" stop-color="#5900FF"/>
</linearGradient>
<linearGradient id="paint7_linear" x1="235.019" y1="60.7241" x2="235.019" y2="131.325" gradientUnits="userSpaceOnUse">
<stop stop-color="#FF90A8"/>
<stop offset="0.864583" stop-color="#5900FF"/>
</linearGradient>
<linearGradient id="paint8_linear" x1="221.88" y1="80.7518" x2="221.88" y2="121.338" gradientUnits="userSpaceOnUse">
<stop stop-color="#FF90A8"/>
<stop offset="0.864583" stop-color="#5900FF"/>
</linearGradient>
<linearGradient id="paint9_linear" x1="215.535" y1="61.3194" x2="215.535" y2="122.435" gradientUnits="userSpaceOnUse">
<stop stop-color="#FF90A8"/>
<stop offset="0.864583" stop-color="#5900FF"/>
</linearGradient>
</defs>
</svg>
